<?xml version="1.0" encoding="utf-8"?>
<!-- Generator: Adobe Illustrator 24.1.1, SVG Export Plug-In . SVG Version: 6.00 Build 0)  -->
<svg version="1.1" id="Layer_1" xmlns="http://www.w3.org/2000/svg" xmlns:xlink="http://www.w3.org/1999/xlink" x="0px" y="0px"
	 viewBox="0 0 512 512" style="enable-background:new 0 0 512 512;" xml:space="preserve">
<style type="text/css">
	.st0{fill:#333333;}
</style>
<g id="XMLID_1_">
	<path id="XMLID_8_" class="st0" d="M256,0C114.5,0,0,114.5,0,256s114.5,256,256,256s256-114.5,256-256S397.5,0,256,0z M198.3,377.9L198.3,377.9L198.3,377.9l-89.4-43.8c-0.9-0.9-2.8-2.8-2.8-4.7V126.6l91.2,45.6v205.7H198.3z M209.5,281.1V189l81.9,133.1L209.5,281.1z M245.8,227.1l63.3-101.5l92.2,46.5l-95,153.6L245.8,227.1z M404,377.9L404,377.9L404,377.9l-89.4-43.8L404,189V377.9z"/>
</g>
</svg>
