<svg width="157" height="22" viewBox="0 0 157 22" fill="none" xmlns="http://www.w3.org/2000/svg">
<path d="M23.3883 15.0373H23.329C10.6827 15.0373 0 13.1837 0 10.9975C0 8.8113 10.6565 6.95776 23.2696 6.95776H23.329C35.9705 6.95776 46.6532 8.8113 46.6532 10.9975C46.6532 13.1837 35.9872 15.0373 23.3883 15.0373ZM23.2696 7.31183C17.2219 7.31183 11.4354 7.73482 6.96901 8.49999C2.09427 9.34121 0.358541 10.3345 0.358541 10.9856C0.358541 11.6367 2.09901 12.6348 6.99038 13.4784C11.4662 14.2507 17.2694 14.6666 23.329 14.6666H23.3883C29.4313 14.6666 35.2202 14.2436 39.6842 13.4784C44.5589 12.6372 46.297 11.6439 46.297 10.9928C46.297 10.3416 44.5542 9.34359 39.6652 8.49999C35.187 7.72769 29.3862 7.31183 23.329 7.31183H23.2696Z" fill="url(#paint0_linear_224_18006)"/>
<path d="M23.3595 15.7337H23.3168C11.34 15.7337 1.23438 13.5617 1.23438 10.981C1.23438 8.40033 11.3305 6.24976 23.2835 6.24976H23.3286C35.303 6.24976 45.411 8.42171 45.411 11.0024C45.411 13.5831 35.3101 15.7337 23.3595 15.7337ZM23.2716 6.61571C17.5231 6.61571 12.0429 7.10999 7.83772 8.00586C3.91513 8.84233 1.57392 9.95682 1.57392 10.9905C1.57392 12.0242 3.91988 13.1458 7.85197 13.9847C12.0619 14.8829 17.5516 15.3772 23.312 15.3772H23.3547C29.1009 15.3772 34.5811 14.8829 38.7887 13.9871C42.7113 13.1506 45.0525 12.0361 45.0525 11.0024C45.0525 9.9687 42.7065 8.84708 38.7744 8.00824C34.5645 7.11237 29.0748 6.61571 23.3191 6.61571H23.2716Z" fill="url(#paint1_linear_224_18006)"/>
<path d="M23.3479 16.4299H23.3146C17.8368 16.4299 12.6296 15.8619 8.64764 14.8306C4.66569 13.7993 2.45508 12.4329 2.45508 10.9928C2.45508 9.55279 4.65144 8.19115 8.62865 7.15983C12.6059 6.1285 17.813 5.57007 23.2838 5.57007H23.3146C28.7925 5.57007 33.9996 6.13801 37.984 7.16934C41.9683 8.20066 44.1742 9.56705 44.1742 11.0095C44.1742 12.4519 41.9802 13.8088 38.0006 14.8401C34.021 15.8714 28.8186 16.4299 23.3479 16.4299ZM23.2838 5.92177C11.2192 5.92177 2.81125 8.59275 2.81125 10.9928C2.81125 13.3929 11.2334 16.0734 23.3146 16.0734H23.3479C35.4101 16.0734 43.818 13.4 43.818 11.0023C43.818 8.60463 35.3982 5.92177 23.3146 5.92177H23.2838Z" fill="url(#paint2_linear_224_18006)"/>
<path d="M23.3378 17.1262H23.314C18.1472 17.1262 13.244 16.487 9.50896 15.3273C5.77395 14.1677 3.67969 12.6231 3.67969 10.9929C3.67969 9.36277 5.74308 7.82767 9.49234 6.66327C13.2416 5.49887 18.1187 4.86914 23.2808 4.86914H23.3045C28.4737 4.86914 33.3746 5.506 37.1096 6.66802C40.8446 7.83004 42.9293 9.37227 42.9293 11.0024C42.9293 12.6326 40.866 14.1653 37.1167 15.3297C33.3674 16.4941 28.4998 17.1262 23.3378 17.1262ZM23.2903 5.22559C13.0374 5.22559 4.05722 7.92034 4.05722 10.9929C4.05722 14.0655 13.0611 16.7698 23.3259 16.7698H23.3496C33.6025 16.7698 42.5827 14.0726 42.5827 11.0024C42.5827 7.93222 33.5788 5.22559 23.314 5.22559H23.2903Z" fill="url(#paint3_linear_224_18006)"/>
<path d="M23.3334 17.8224H23.3144C13.1731 17.8224 4.92188 14.7594 4.92188 10.9929C4.92188 7.22643 13.166 4.17285 23.2977 4.17285C33.4295 4.17285 41.7069 7.23593 41.7069 11C41.7069 14.7641 33.4651 17.8224 23.3334 17.8224ZM23.3144 4.5293C13.5316 4.5293 5.26855 7.4902 5.26855 10.9929C5.26855 14.4956 13.5293 17.466 23.3144 17.466H23.3334C33.0995 17.466 41.3507 14.5051 41.3507 11C41.3507 7.49495 33.09 4.5293 23.3144 4.5293Z" fill="url(#paint4_linear_224_18006)"/>
<path d="M23.3259 18.5187H23.314C13.8518 18.5187 6.15625 15.1443 6.15625 10.9952C6.15625 6.84618 13.8471 3.47656 23.3022 3.47656C32.7572 3.47656 40.4837 6.85332 40.4837 11C40.4837 15.1467 32.781 18.5187 23.3259 18.5187ZM23.314 3.83301C14.2009 3.83301 6.51242 7.11233 6.51242 10.9952C6.51242 14.8782 14.2056 18.1646 23.314 18.1646L23.3259 18.3428V18.1646C32.4272 18.1646 40.1156 14.8853 40.1156 11.0024C40.1156 7.11946 32.4224 3.83301 23.314 3.83301Z" fill="url(#paint5_linear_224_18006)"/>
<path d="M23.3239 19.2149C14.5384 19.2149 7.39844 15.5269 7.39844 10.9952C7.39844 6.46357 14.5384 2.78027 23.3073 2.78027C32.0761 2.78027 39.2398 6.46832 39.2398 11C39.2398 15.5316 32.0998 19.2149 23.3239 19.2149ZM23.3239 3.13909C19.1543 3.13909 15.2317 3.97556 12.2684 5.49879C9.35736 6.99349 7.75698 8.94682 7.75698 10.9952C7.75698 13.0436 9.36211 14.9993 12.2684 16.4964C15.2341 18.0196 19.1543 18.8585 23.3215 18.8585C27.4815 18.8585 31.3946 18.0196 34.3674 16.4964C37.2785 15.0017 38.8789 13.0507 38.8789 11C38.8789 8.9492 37.2738 6.99586 34.3674 5.50116C31.4018 3.97794 27.4768 3.13909 23.3144 3.13909H23.3239Z" fill="url(#paint6_linear_224_18006)"/>
<path d="M23.3181 19.9112C15.2165 19.9112 8.625 15.9119 8.625 10.9976C8.625 6.0834 15.2141 2.08643 23.3133 2.08643C31.4126 2.08643 38.0088 6.08578 38.0088 11C38.0088 15.9142 31.4173 19.9112 23.3181 19.9112ZM23.3181 2.44287C15.4112 2.44287 8.98354 6.28063 8.98354 10.9976C8.98354 15.7146 15.4135 19.5524 23.3181 19.5524C31.2203 19.5524 37.6479 15.7146 37.6479 10.9976C37.6479 6.28063 31.2226 2.44287 23.3133 2.44287H23.3181Z" fill="url(#paint7_linear_224_18006)"/>
<path d="M23.3178 20.6075C15.8976 20.6075 9.85938 16.2968 9.85938 10.9976C9.85938 5.69841 15.8952 1.39014 23.3154 1.39014C30.7355 1.39014 36.7761 5.70079 36.7761 11C36.7761 16.2992 30.7498 20.6075 23.3178 20.6075ZM23.3178 1.74659C16.0923 1.74659 10.2155 5.89802 10.2155 10.9976C10.2155 16.0972 16.0947 20.2486 23.3178 20.2486C30.5408 20.2486 36.4176 16.0996 36.4176 11C36.4176 5.9004 30.5385 1.74659 23.3154 1.74659H23.3178Z" fill="url(#paint8_linear_224_18006)"/>
<path d="M23.3163 21.3038V20.9449C29.8579 20.9449 35.1886 16.4846 35.1886 11C35.1886 5.51548 29.8579 1.05512 23.3139 1.05512C16.77 1.05512 11.4417 5.51548 11.4417 11C11.4417 16.4846 16.7652 20.9473 23.3139 20.9473V21.3061C16.5729 21.3061 11.0879 16.6818 11.0879 11C11.0879 5.31824 16.5729 0.696289 23.3116 0.696289C30.0502 0.696289 35.54 5.32061 35.54 11.0024C35.54 16.6842 30.055 21.3038 23.3163 21.3038Z" fill="url(#paint9_linear_224_18006)"/>
<path d="M23.3147 22C21.141 21.9991 19.0164 21.3531 17.2095 20.1438C15.4027 18.9346 13.9946 17.2163 13.1634 15.2062C12.3323 13.1961 12.1153 10.9846 12.5399 8.85109C12.9645 6.71762 14.0117 4.75805 15.5491 3.22015C17.0864 1.68225 19.0449 0.635072 21.1769 0.211019C23.3089 -0.213033 25.5186 0.0050813 27.5268 0.837785C29.5349 1.67049 31.2512 3.08039 32.4587 4.88922C33.6663 6.69806 34.3108 8.82461 34.3108 11C34.3076 13.9172 33.148 16.714 31.0864 18.7764C29.0247 20.8387 26.2297 21.9981 23.3147 22ZM23.3147 0.35645C21.2113 0.35645 19.1551 0.980687 17.4061 2.15022C15.6572 3.31974 14.2941 4.98203 13.4891 6.92689C12.6842 8.87174 12.4735 11.0118 12.8839 13.0765C13.2943 15.1411 14.3072 17.0376 15.7945 18.5261C17.2819 20.0147 19.1769 21.0283 21.2399 21.439C23.3029 21.8497 25.4413 21.6389 27.3846 20.8334C29.3279 20.0278 30.9889 18.6636 32.1575 16.9132C33.3261 15.1629 33.9499 13.1051 33.9499 11C33.9467 8.17812 32.8252 5.47272 30.8314 3.47735C28.8376 1.48197 26.1344 0.359595 23.3147 0.35645Z" fill="url(#paint10_linear_224_18006)"/>
<path d="M61.5987 14.4421V11.5009H53.7806C53.5176 11.5009 53.2654 11.3963 53.0795 11.2102C52.8935 11.0241 52.7891 10.7717 52.7891 10.5085V7.75098H53.5971V10.6922H61.5987V7.75098H62.4043V14.4421H61.5987Z" fill="white"/>
<path d="M67.337 14.4302C66.452 14.4302 65.6032 14.0783 64.9774 13.452C64.3516 12.8257 64 11.9763 64 11.0906C64 10.2049 64.3516 9.35543 64.9774 8.72913C65.6032 8.10283 66.452 7.75098 67.337 7.75098L73.5986 7.77961V8.58827L67.3394 8.55964C66.668 8.55964 66.0242 8.82655 65.5494 9.30164C65.0747 9.77673 64.808 10.4211 64.808 11.093C64.808 11.7649 65.0747 12.4092 65.5494 12.8843C66.0242 13.3594 66.668 13.6263 67.3394 13.6263L73.601 13.6525V14.4612L67.337 14.4302ZM67.8137 11.5247V10.7161L73.5986 10.7423V11.5486L67.8137 11.5247Z" fill="white"/>
<path d="M80.5574 14.2555C80.4239 14.2557 80.2919 14.2289 80.169 14.1769C80.0462 14.1248 79.9351 14.0485 79.8423 13.9526L79.8137 13.9216L76 7.93415L76.6817 7.5L80.5574 13.5852L84.4354 7.5L85.1171 7.93654L81.3034 13.9216L81.2772 13.9526C81.1835 14.0487 81.0716 14.125 80.9479 14.177C80.8243 14.2291 80.6915 14.2558 80.5574 14.2555Z" fill="white"/>
<path d="M90.337 14.4302C89.452 14.4302 88.6032 14.0783 87.9774 13.452C87.3516 12.8257 87 11.9763 87 11.0906C87 10.2049 87.3516 9.35542 87.9774 8.72912C88.6032 8.10282 89.452 7.75098 90.337 7.75098L96.601 7.77721V8.58588L90.3417 8.55963C90.0029 8.54923 89.6655 8.60702 89.3495 8.72959C89.0334 8.85216 88.7452 9.03701 88.5018 9.27317C88.2585 9.50933 88.065 9.79199 87.9329 10.1044C87.8008 10.4168 87.7327 10.7526 87.7327 11.0918C87.7327 11.431 87.8008 11.7668 87.9329 12.0792C88.065 12.3916 88.2585 12.6742 88.5018 12.9104C88.7452 13.1465 89.0334 13.3314 89.3495 13.454C89.6655 13.5765 90.0029 13.6343 90.3417 13.6239L96.6057 13.6525V14.4588L90.337 14.4302ZM90.8137 11.5247V10.7161L96.5986 10.7423V11.551L90.8137 11.5247Z" fill="white"/>
<path d="M103.512 14.4684C103.25 14.4677 102.998 14.3629 102.812 14.1769C102.627 13.9908 102.523 13.7388 102.523 13.476V11.7013C102.523 11.4387 102.627 11.1869 102.813 11.0013C102.998 10.8156 103.25 10.7113 103.512 10.7113H106.727C106.87 10.7107 107.01 10.682 107.141 10.627C107.272 10.572 107.391 10.4917 107.491 10.3907C107.591 10.2897 107.67 10.17 107.724 10.0384C107.778 9.90672 107.805 9.76576 107.805 9.62354V9.58776C107.805 9.31319 107.696 9.04986 107.502 8.85571C107.308 8.66156 107.045 8.55249 106.77 8.55249H99.808V14.4684H99V8.74332C99.0006 8.48033 99.1053 8.22828 99.2911 8.04232C99.4769 7.85636 99.7288 7.75161 99.9916 7.75098H106.77C107.259 7.75098 107.728 7.94525 108.073 8.29105C108.419 8.63686 108.613 9.10588 108.613 9.59492V9.6307C108.614 10.1322 108.415 10.6135 108.062 10.969C107.708 11.3245 107.229 11.5252 106.727 11.5271H103.331V13.674H108.336V14.4684H103.512Z" fill="white"/>
<path d="M111.992 14.4373C111.729 14.4373 111.476 14.3328 111.29 14.1467C111.104 13.9606 111 13.7082 111 13.445V7.75098H111.808V13.6287H120.575V14.4373H111.992Z" fill="white"/>
<path d="M131.8 14.4373V11.8301H125.929V11.0214H131.8V8.55725H123.808V14.4373H123V8.74093C123.001 8.47816 123.105 8.22637 123.291 8.04078C123.477 7.8552 123.729 7.75098 123.992 7.75098H131.619C131.882 7.75098 132.133 7.8552 132.319 8.04078C132.505 8.22637 132.61 8.47816 132.61 8.74093V14.4373H131.8Z" fill="white"/>
<path d="M143.619 14.5C143.46 14.4997 143.303 14.4613 143.161 14.3879L143.123 14.3688L135.806 8.36706V14.469H135V8.74397C134.999 8.57316 135.042 8.40503 135.126 8.256C135.209 8.10697 135.33 7.98213 135.476 7.89368C135.622 7.80524 135.788 7.7562 135.959 7.75137C136.129 7.74654 136.298 7.78609 136.449 7.86613L136.485 7.88521L143.805 13.887V7.77787H144.613V13.5029C144.614 13.6733 144.57 13.841 144.486 13.9894C144.403 14.1379 144.282 14.2621 144.136 14.3497C143.981 14.4464 143.802 14.4984 143.619 14.5Z" fill="white"/>
<path d="M147 14.4326V10.9809H147.808V13.6263H153.29C153.962 13.6263 154.605 13.3594 155.08 12.8843C155.555 12.4092 155.822 11.7649 155.822 11.093C155.822 10.4211 155.555 9.77672 155.08 9.30163C154.605 8.82654 153.962 8.55964 153.29 8.55964H147V7.75098H153.288C154.173 7.75098 155.022 8.10283 155.647 8.72913C156.273 9.35543 156.625 10.2049 156.625 11.0906C156.625 11.9763 156.273 12.8257 155.647 13.452C155.022 14.0783 154.173 14.4302 153.288 14.4302L147 14.4326Z" fill="white"/>
<defs>
<linearGradient id="paint0_linear_224_18006" x1="-0.0118723" y1="10.9951" x2="46.6413" y2="10.9951" gradientUnits="userSpaceOnUse">
<stop stop-color="#FDA9FF"/>
<stop offset="1" stop-color="#039CFF"/>
</linearGradient>
<linearGradient id="paint1_linear_224_18006" x1="1.2225" y1="10.9977" x2="45.4063" y2="10.9977" gradientUnits="userSpaceOnUse">
<stop stop-color="#FDA9FF"/>
<stop offset="1" stop-color="#039CFF"/>
</linearGradient>
<linearGradient id="paint2_linear_224_18006" x1="2.45508" y1="10.9976" x2="44.1742" y2="10.9976" gradientUnits="userSpaceOnUse">
<stop stop-color="#FDA9FF"/>
<stop offset="1" stop-color="#039CFF"/>
</linearGradient>
<linearGradient id="paint3_linear_224_18006" x1="3.68919" y1="10.9977" x2="42.9388" y2="10.9977" gradientUnits="userSpaceOnUse">
<stop stop-color="#FDA9FF"/>
<stop offset="1" stop-color="#039CFF"/>
</linearGradient>
<linearGradient id="paint4_linear_224_18006" x1="4.92187" y1="10.9977" x2="41.7069" y2="10.9977" gradientUnits="userSpaceOnUse">
<stop stop-color="#FDA9FF"/>
<stop offset="1" stop-color="#039CFF"/>
</linearGradient>
<linearGradient id="paint5_linear_224_18006" x1="6.15625" y1="10.9976" x2="40.4742" y2="10.9976" gradientUnits="userSpaceOnUse">
<stop stop-color="#FDA9FF"/>
<stop offset="1" stop-color="#039CFF"/>
</linearGradient>
<linearGradient id="paint6_linear_224_18006" x1="7.38894" y1="10.9976" x2="39.2398" y2="10.9976" gradientUnits="userSpaceOnUse">
<stop stop-color="#FDA9FF"/>
<stop offset="1" stop-color="#039CFF"/>
</linearGradient>
<linearGradient id="paint7_linear_224_18006" x1="8.62025" y1="10.9976" x2="38.0041" y2="10.9976" gradientUnits="userSpaceOnUse">
<stop stop-color="#FDA9FF"/>
<stop offset="1" stop-color="#039CFF"/>
</linearGradient>
<linearGradient id="paint8_linear_224_18006" x1="9.857" y1="10.9976" x2="36.7738" y2="10.9976" gradientUnits="userSpaceOnUse">
<stop stop-color="#FDA9FF"/>
<stop offset="1" stop-color="#039CFF"/>
</linearGradient>
<linearGradient id="paint9_linear_224_18006" x1="11.0879" y1="10.9976" x2="35.54" y2="10.9976" gradientUnits="userSpaceOnUse">
<stop stop-color="#FDA9FF"/>
<stop offset="1" stop-color="#039CFF"/>
</linearGradient>
<linearGradient id="paint10_linear_224_18006" x1="12.3234" y1="11" x2="34.306" y2="11" gradientUnits="userSpaceOnUse">
<stop stop-color="#FDA9FF"/>
<stop offset="1" stop-color="#039CFF"/>
</linearGradient>
</defs>
</svg>
