<svg width="40" height="40" viewBox="0 0 40 40" fill="none" xmlns="http://www.w3.org/2000/svg">
<path fill-rule="evenodd" clip-rule="evenodd" d="M14.5723 25.9962C14.9794 26.143 15.4286 26.2903 15.9194 26.4263C15.0547 27.2555 13.7143 28.4167 13.7143 28.4167C9.55151 28.2949 9 25.1462 9 25.1462C9 19.5445 11.7123 12.8268 11.7123 12.8268C14.4246 10.9479 17.0051 11.0001 17.0051 11.0001L17.244 12.4843C17.244 12.4843 18.9593 12.3153 20 12.3062C21.0407 12.2972 22.5737 12.4378 22.5737 12.4378L22.9948 11.0003C22.9948 11.0003 25.5753 10.9479 28.2876 12.8269C28.2876 12.8269 31 19.5445 31 25.1462C31 25.1462 30.4484 28.2949 26.2857 28.4167C26.2857 28.4167 25.0341 27.2765 24.2066 26.4549C24.641 26.3317 25.08 26.1847 25.5254 26.0124C26.2362 25.7675 27.0185 25.4135 27.8345 24.9172L26.9702 23.7051C26.2477 24.1446 25.5664 24.4503 24.9629 24.6571L24.953 24.6606L24.9452 24.6634L24.9319 24.6684C24.0417 25.0139 23.1952 25.2409 22.3732 25.3702L22.3604 25.3723C20.6662 25.6657 19.1092 25.5854 17.7732 25.3553C16.7582 25.1741 15.8829 24.9106 15.1443 24.6444C14.4053 24.3773 13.773 24.0948 13.1612 23.6993L12.2601 24.8883C13.008 25.3718 13.7636 25.7039 14.5723 25.9962ZM18.1667 19.25C18.1667 20.2625 17.3459 21.0833 16.3333 21.0833C15.3208 21.0833 14.5 20.2625 14.5 19.25C14.5 18.2375 15.3208 17.4167 16.3333 17.4167C17.3459 17.4167 18.1667 18.2375 18.1667 19.25ZM23.6673 21.0834C24.6798 21.0834 25.5007 20.2626 25.5007 19.2501C25.5007 18.2376 24.6798 17.4167 23.6673 17.4167C22.6548 17.4167 21.834 18.2376 21.834 19.2501C21.834 20.2626 22.6548 21.0834 23.6673 21.0834Z" fill="#98A2B3"/>
</svg>
