<svg width="40" height="40" viewBox="0 0 40 40" fill="none" xmlns="http://www.w3.org/2000/svg">
<path fill-rule="evenodd" clip-rule="evenodd" d="M10.327 13.638C10 14.2798 10 15.1198 10 16.8V23.2C10 24.8802 10 25.7202 10.327 26.362C10.6146 26.9265 11.0735 27.3854 11.638 27.673C12.2798 28 13.1198 28 14.8 28H25.2C26.8802 28 27.7202 28 28.362 27.673C28.9265 27.3854 29.3854 26.9265 29.673 26.362C30 25.7202 30 24.8802 30 23.2V16.8C30 15.1198 30 14.2798 29.673 13.638C29.3854 13.0735 28.9265 12.6146 28.362 12.327C27.7202 12 26.8802 12 25.2 12H14.8C13.1198 12 12.2798 12 11.638 12.327C11.0735 12.6146 10.6146 13.0735 10.327 13.638ZM14.5735 17.1808C14.121 16.8641 13.4975 16.9741 13.1808 17.4265C12.8641 17.879 12.9741 18.5025 13.4265 18.8192L17.509 21.677L17.6243 21.7579C18.169 22.1403 18.6472 22.4761 19.1919 22.6119C19.6684 22.7307 20.1667 22.7307 20.6431 22.6119C21.1878 22.4761 21.6661 22.1403 22.2107 21.7579L22.3261 21.677L26.4085 18.8192C26.861 18.5025 26.971 17.879 26.6543 17.4265C26.3376 16.9741 25.7141 16.8641 25.2616 17.1808L21.1792 20.0385C20.4502 20.5487 20.2958 20.6373 20.1594 20.6713C20.0006 20.7109 19.8345 20.7109 19.6757 20.6713C19.5393 20.6373 19.3849 20.5487 18.6559 20.0385L14.5735 17.1808Z" fill="#98A2B3"/>
</svg>
