<svg width="40" height="40" viewBox="0 0 40 40" fill="none" xmlns="http://www.w3.org/2000/svg">
<path d="M22.88 11.1302C21.086 10.7134 19.2202 10.7134 17.4263 11.1302C16.3901 10.4942 15.5984 10.2024 15.0229 10.0794C14.7101 10.0125 14.4621 9.99584 14.2756 10.0008C14.1825 10.0033 14.1055 10.0112 14.0441 10.0206C14.0135 10.0253 13.9868 10.0304 13.9642 10.0354C13.9528 10.0379 13.9425 10.0403 13.9332 10.0427L13.92 10.0461L13.9139 10.0478L13.911 10.0486L13.9082 10.0494C13.9082 10.0494 13.9082 10.0494 13.9082 10.0494C13.9076 10.0497 13.9107 10.058 14.1098 10.7544L13.9082 10.0494C13.6997 10.109 13.5283 10.2578 13.4399 10.4558C13.193 11.0085 13.0582 11.6046 13.0432 12.2098C13.0321 12.6595 13.0873 13.1075 13.2063 13.5396C12.8935 13.9185 12.6386 14.3427 12.4508 14.7986C12.2043 15.397 12.0782 16.0382 12.0797 16.6853C12.0799 18.9643 12.7523 20.4966 13.8981 21.4812C14.7009 22.171 15.6768 22.5381 16.654 22.7483C16.4926 23.1966 16.4508 23.6709 16.4834 24.1542V25.0324C15.8855 25.1581 15.4726 25.1184 15.1782 25.0212C14.8083 24.8991 14.5248 24.6536 14.2543 24.301C14.1173 24.1224 13.9911 23.9263 13.8586 23.7117L13.7744 23.5747C13.6706 23.4053 13.5586 23.2224 13.4456 23.0557C13.1655 22.6426 12.7523 22.1265 12.0826 21.9507L11.3728 21.7643L11 23.1841L11.7099 23.3704C11.8265 23.4011 11.98 23.5099 12.2307 23.8795C12.3228 24.0153 12.4106 24.1587 12.5109 24.3224C12.5424 24.3738 12.5752 24.4273 12.6097 24.4832C12.7475 24.7062 12.9055 24.9544 13.0896 25.1944C13.4613 25.679 13.9674 26.1674 14.7182 26.4151C15.234 26.5854 15.8171 26.6263 16.4834 26.5238V29.2661C16.4834 29.6714 16.812 30 17.2174 30H23.0889C23.4943 30 23.8229 29.6714 23.8229 29.2661V24.0367C23.8229 23.5731 23.8027 23.1493 23.6722 22.754C24.6445 22.5487 25.6126 22.1813 26.4102 21.4909C27.5556 20.4994 28.2265 18.9533 28.2265 16.6605L28.2265 16.6582C28.2228 15.515 27.8218 14.4139 27.1 13.5396C27.219 13.1075 27.2742 12.6595 27.2631 12.2098C27.2481 11.6046 27.1133 11.0085 26.8664 10.4558C26.778 10.2577 26.6065 10.1089 26.3979 10.0493L26.1963 10.755C26.3979 10.0493 26.3958 10.0487 26.3951 10.0485L26.3922 10.0477L26.3862 10.0461L26.3729 10.0426C26.3636 10.0403 26.3533 10.0378 26.342 10.0354C26.3193 10.0304 26.2927 10.0253 26.2621 10.0206C26.2007 10.0112 26.1237 10.0033 26.0306 10.0008C25.844 9.99584 25.596 10.0125 25.2831 10.0794C24.7075 10.2024 23.9157 10.4942 22.88 11.1302Z" fill="#98A2B3"/>
</svg>
