<svg width="40" height="40" viewBox="0 0 40 40" fill="none" xmlns="http://www.w3.org/2000/svg">
<g clip-path="url(#clip0_549_7987)">
<path d="M21.5508 19.8055C21.5508 23.5696 18.5094 26.611 14.7754 26.611C11.0414 26.611 8 23.5997 8 19.8055C8 16.0113 11.0414 13 14.7754 13C18.5094 13 21.5508 16.0414 21.5508 19.8055Z" fill="#98A2B3"/>
<path d="M28.9894 19.8057C28.9894 23.359 27.4838 26.2197 25.6168 26.2197C23.7498 26.2197 22.2441 23.359 22.2441 19.8057C22.2441 16.2523 23.7498 13.3916 25.6168 13.3916C27.4537 13.3916 28.9894 16.2824 28.9894 19.8057Z" fill="#98A2B3"/>
<path d="M32.0008 19.8053C32.0008 22.9671 31.4588 25.5568 30.7963 25.5568C30.1338 25.5568 29.5918 22.9671 29.5918 19.8053C29.5918 16.6434 30.1338 14.0537 30.7963 14.0537C31.4889 14.0537 32.0008 16.6434 32.0008 19.8053Z" fill="#98A2B3"/>
</g>
<defs>
<clipPath id="clip0_549_7987">
<rect width="24" height="24" fill="white" transform="translate(8 8)"/>
</clipPath>
</defs>
</svg>
