<svg width="40" height="40" viewBox="0 0 40 40" fill="none" xmlns="http://www.w3.org/2000/svg">
<path fill-rule="evenodd" clip-rule="evenodd" d="M20.1779 10.0219C19.9588 9.96713 19.7267 10.0164 19.5487 10.1553C19.3707 10.2943 19.2667 10.5075 19.2667 10.7333V15.8889C17.343 16.0056 15.5354 16.5736 14.0669 17.4197C13.4981 16.9195 12.7311 16.6643 11.9653 16.6643C10.3273 16.6643 9 17.9916 9 19.6295C9 20.7264 9.59556 21.6751 10.4766 22.185C10.47 22.2784 10.4667 22.3723 10.4667 22.4667C10.4667 24.2893 11.7169 25.9509 13.4312 27.1157C15.169 28.2965 17.5129 29.0667 20 29.0667C22.487 29.0667 24.831 28.2965 26.5688 27.1157C28.2831 25.9509 29.5333 24.2893 29.5333 22.4667C29.5333 22.3724 29.53 22.2785 29.5234 22.1851C30.4045 21.6752 31.0001 20.7264 31.0001 19.6295C31.0001 17.9916 29.6728 16.6643 28.0349 16.6643C27.2691 16.6643 26.502 16.9195 25.9332 17.4197C24.4646 16.5736 22.657 16.0056 20.7333 15.8889V11.6726L25.2141 12.7928C25.4729 13.7199 26.3237 14.4 27.3333 14.4C28.5484 14.4 29.5333 13.415 29.5333 12.2C29.5333 10.985 28.5484 10 27.3333 10C26.4359 10 25.664 10.5374 25.3217 11.3079L20.1779 10.0219ZM27.3333 12.9333C26.932 12.9333 26.606 12.611 26.6001 12.211L26.6 12.2L26.6001 12.1884C26.6063 11.7887 26.9322 11.4667 27.3333 11.4667C27.7383 11.4667 28.0667 11.795 28.0667 12.2C28.0667 12.605 27.7383 12.9333 27.3333 12.9333ZM20.0001 24.6667C18.8825 24.6667 18.077 24.5176 17.3026 24.2536C16.9192 24.123 16.4906 24.2934 16.3334 24.6667C16.1761 25.0399 16.3501 25.4735 16.7321 25.6081C17.674 25.9398 18.6591 26.1333 20.0001 26.1333C21.341 26.1333 22.3261 25.9398 23.268 25.6081C23.65 25.4735 23.824 25.0399 23.6667 24.6667C23.5095 24.2934 23.0809 24.123 22.6975 24.2536C21.9231 24.5176 21.1176 24.6667 20.0001 24.6667ZM17.5 21C17.5 21.5523 17.0523 22 16.5 22C15.9477 22 15.5 21.5523 15.5 21C15.5 20.4477 15.9477 20 16.5 20C17.0523 20 17.5 20.4477 17.5 21ZM22.5 22C23.0523 22 23.5 21.5523 23.5 21C23.5 20.4477 23.0523 20 22.5 20C21.9477 20 21.5 20.4477 21.5 21C21.5 21.5523 21.9477 22 22.5 22Z" fill="#98A2B3"/>
</svg>
