<svg width="40" height="40" viewBox="0 0 40 40" fill="none" xmlns="http://www.w3.org/2000/svg">
<path d="M30.99 12.8539C31.0327 12.5975 30.9365 12.3376 30.7371 12.1708C30.5377 12.004 30.2648 11.9553 30.02 12.0427L9.48669 19.3761C9.21004 19.4749 9.01905 19.7292 9.00134 20.0225C8.98363 20.3157 9.14263 20.5912 9.40538 20.7226L15.272 23.6559C15.5074 23.7736 15.7878 23.7561 16.0068 23.6102L20.8767 20.3636L17.9607 24.0086C17.8323 24.1691 17.7771 24.3761 17.8087 24.5792C17.8402 24.7823 17.9555 24.9628 18.1266 25.0768L23.2599 30.9435C23.4669 31.0815 23.7298 31.1051 23.9582 31.0062C24.1865 30.9073 24.3491 30.6993 24.39 30.4539L30.99 12.8539Z" fill="#98A2B3"/>
</svg>
