<svg width="24" height="24" viewBox="0 0 24 24" fill="none" xmlns="http://www.w3.org/2000/svg">
<path fill-rule="evenodd" clip-rule="evenodd" d="M3.34382 10.974C8.59119 8.6878 12.0903 7.1806 13.841 6.4524C18.8398 4.37323 19.8785 4.01205 20.5555 4.00013C20.7044 3.9975 21.0374 4.03441 21.253 4.2094C21.4351 4.35716 21.4852 4.55677 21.5092 4.69686C21.5332 4.83696 21.563 5.1561 21.5393 5.40546C21.2684 8.25169 20.0963 15.1587 19.5 18.3466C19.2477 19.6954 18.7508 20.1477 18.2699 20.192C17.2246 20.2882 16.4308 19.5012 15.4184 18.8375C13.8342 17.799 12.9392 17.1526 11.4014 16.1392C9.62424 14.9681 10.7763 14.3244 11.7891 13.2725C12.0542 12.9972 16.6597 8.80803 16.7489 8.42801C16.76 8.38049 16.7704 8.20332 16.6651 8.10978C16.5599 8.01623 16.4045 8.04822 16.2924 8.07366C16.1336 8.10972 13.6027 9.78251 8.69994 13.092C7.98158 13.5853 7.3309 13.8257 6.74792 13.8131C6.10522 13.7992 4.86894 13.4497 3.94989 13.1509C2.82264 12.7845 1.92672 12.5908 2.00474 11.9685C2.04537 11.6443 2.49173 11.3128 3.34382 10.974Z" fill="white"/>
</svg>
