<svg width="40" height="40" viewBox="0 0 40 40" fill="none" xmlns="http://www.w3.org/2000/svg">
<path fill-rule="evenodd" clip-rule="evenodd" d="M12.0081 12.8467C17.2762 11.7178 22.7238 11.7178 27.9919 12.8467C29.1632 13.0977 30 14.1328 30 15.3307V25.6345C30 26.8324 29.1632 27.8675 27.9919 28.1185C22.7238 29.2474 17.2762 29.2474 12.0081 28.1185C10.8368 27.8675 10 26.8324 10 25.6345V15.3307C10 14.1328 10.8368 13.0977 12.0081 12.8467ZM19.0365 17.2612C18.8319 17.1248 18.5689 17.1121 18.3521 17.2281C18.1353 17.3441 18 17.5701 18 17.8159V23.1493C18 23.3951 18.1353 23.621 18.3521 23.737C18.5689 23.853 18.8319 23.8403 19.0365 23.704L23.0365 21.0373C23.2219 20.9136 23.3333 20.7055 23.3333 20.4826C23.3333 20.2597 23.2219 20.0515 23.0365 19.9279L19.0365 17.2612Z" fill="#98A2B3"/>
</svg>
