<svg width="24" height="24" viewBox="0 0 24 24" fill="none" xmlns="http://www.w3.org/2000/svg">
<path fill-rule="evenodd" clip-rule="evenodd" d="M11.5733 22C15.6467 22 19.4995 20.2498 20 15.0901C20 11.9822 19.2543 9.4521 17.7628 7.5C16.3696 9.83335 15.337 11 14.665 11C13.657 11 14.665 7.95535 13.4994 5.6457C12.7223 4.10597 11.344 2.89073 9.36445 2C9.6397 4.21845 9.58015 5.8277 9.18575 6.8277C8.5941 8.3277 3.57557 10.955 4.02892 15.4674C4.48227 19.9799 7.49951 21.7498 11.5733 22Z" fill="url(#paint0_linear_1846_243)" stroke="url(#paint1_linear_1846_243)" stroke-width="1.5" stroke-linecap="round" stroke-linejoin="round"/>
<path d="M10.8538 12.0039C8.95141 13.7331 8.14056 15.3335 8.42136 16.8052C8.66306 18.0722 9.62436 18.688 10.3485 18.8865C10.9098 19.0405 11.8818 19.1266 12.7502 18.3531C13.6701 17.5339 13.3036 16.3692 11.9696 14.9283C11.4069 14.3205 11.035 13.3457 10.8538 12.0039Z" fill="white" stroke="white" stroke-width="2" stroke-linejoin="round"/>
<defs>
<linearGradient id="paint0_linear_1846_243" x1="6.25601" y1="21.4874" x2="23.5166" y2="7.67876" gradientUnits="userSpaceOnUse">
<stop stop-color="#FFAD08"/>
<stop offset="1" stop-color="#FF21FB"/>
</linearGradient>
<linearGradient id="paint1_linear_1846_243" x1="6.25601" y1="21.4874" x2="23.5166" y2="7.67876" gradientUnits="userSpaceOnUse">
<stop stop-color="#FFAD08"/>
<stop offset="1" stop-color="#FF21FB"/>
</linearGradient>
</defs>
</svg>
