<svg width="24" height="18" viewBox="0 0 24 18" fill="none" xmlns="http://www.w3.org/2000/svg">
<g id="Frame 1686552943">
<path id="Ellipse 64" d="M4.83621 6.52262C5.84947 3.31696 8.77598 1 12.2282 1C16.5205 1 20 4.58172 20 9C20 9.66928 19.9202 10.3194 19.7697 10.9407M18.3974 13.8662C16.9768 15.7716 14.7419 17 12.2282 17C10.9378 17 9.7209 16.6763 8.64987 16.1035L4 16.5891L5.05516 12.1C4.81612 11.5152 4.64503 10.8949 4.54848 10.2491" stroke="#6172F3" stroke-width="2" stroke-linecap="round" stroke-linejoin="round"/>
<rect id="Rectangle 346241612" x="9" y="5" width="9" height="5" rx="2.5" fill="#6172F3"/>
<path id="Ellipse 65" d="M5.00087 5.81659C2.86996 5.75702 1.44467 6.09286 1.24598 6.83437C0.857733 8.28332 5.30006 10.7326 11.1682 12.3049C17.0363 13.8773 22.1081 13.9773 22.4963 12.5284C22.6862 11.82 21.7214 10.8726 20 9.90541" stroke="#6172F3" stroke-width="2" stroke-linecap="round" stroke-linejoin="round"/>
<rect id="Rectangle 346241613" x="12" y="6" width="2" height="3" rx="1" fill="#121536"/>
<rect id="Rectangle 346241614" x="15" y="6" width="2" height="3" rx="1" fill="#121536"/>
</g>
</svg>
