<?xml version="1.0" encoding="utf-8"?>
<!-- Generator: Adobe Illustrator 27.5.0, SVG Export Plug-In . SVG Version: 6.00 Build 0)  -->
<svg version="1.1" id="图层_1" xmlns="http://www.w3.org/2000/svg" xmlns:xlink="http://www.w3.org/1999/xlink" x="0px" y="0px"
	 viewBox="0 0 140 21" style="enable-background:new 0 0 140 21;" xml:space="preserve">
<style type="text/css">
	.st0{fill-rule:evenodd;clip-rule:evenodd;fill:#FFFFFF;}
	.st1{fill:#FFFFFF;}
</style>
<path class="st0" d="M4.9,20h18.3c1.1,0,1.9-1.3,1.3-2.2L15.3,1.9C14.7,0.8,13.4,0,12,0c-1.5,0-2.9,0.9-3.5,2.2l-6.9,12
	C0.1,16.7,2,20,4.9,20z"/>
<path class="st0" d="M19.3,5.9c-1.1-1.9-0.4-4.3,1.4-5.3C22.6-0.6,25,0.1,26,2l7.1,12.2c1.1,1.9,0.4,4.3-1.4,5.3
	c-1.9,1.1-4.3,0.4-5.3-1.4L19.3,5.9z"/>
<path class="st1" d="M127.7,5.1c1.1-1,2.9-1.5,5.7-1.5h6.4V0h-7.5c-1.8,0-3.3,0.2-4.5,0.6c-1.2,0.4-2.2,1-3.1,1.8
	c-0.9,0.9-1.7,2-2.2,3.3c-0.5,1.3-0.8,2.8-0.8,4.4c0,1.5,0.3,2.9,0.8,4.2c0.5,1.3,1.3,2.4,2.2,3.3c0.9,0.8,1.9,1.4,3,1.8
	c1.2,0.4,2.7,0.6,4.5,0.6h7.5v-3.6h-6.4c-1.4,0-2.4,0-3-0.2c-0.6-0.1-1.1-0.3-1.6-0.6c-0.9-0.6-1.6-1.3-2-2.2
	c-0.4-0.9-0.6-2-0.6-3.4C126.1,7.8,126.6,6.1,127.7,5.1z"/>
<path class="st1" d="M72.2,20H90v-3.5H76.6v-5h11.7V8.2H76.6V3.6H90V0H72.2V20z"/>
<path class="st1" d="M94.4,0l8.3,10l-8.3,10h5.4l6.6-7.9V8L99.8,0H94.4z"/>
<path class="st1" d="M114.6,0L108,8v4.1l6.6,7.9h5.4l-8.3-10L120,0H114.6z"/>
<path class="st1" d="M54.8,9.9l-8-9.8h-4.1v20h4.3V6.7L54,15h1.7l6.9-8.4V20h4.3V0h-4.1L54.8,9.9z"/>
</svg>
