<svg width="95" height="30" viewBox="0 0 95 30" fill="none" xmlns="http://www.w3.org/2000/svg">
<g clip-path="url(#clip0_1392_32516)">
<path fill-rule="evenodd" clip-rule="evenodd" d="M25.2137 5.4C26.7012 5.4 27.9137 4.1875 27.9137 2.7C27.9137 1.2125 26.7012 0 25.2137 0C23.7262 0 22.5137 1.2125 22.5137 2.7C22.5137 4.1875 23.7262 5.4 25.2137 5.4ZM19.2012 9.4675C19.2563 10.8945 18.7573 12.2875 17.8087 13.355V13.3675C18.5537 13.8712 20.4012 15.2512 20.4012 17.9037C20.4012 20.9387 17.9175 23.4112 14.8687 23.4112H0.0012207V4.2125H13.5487C16.525 4.2125 19.0575 6.515 19.2012 9.4675ZM14.3887 9.85125C14.3887 8.5075 13.2737 7.9075 12.0012 7.9075H4.80122V11.735H12.0012C13.2487 11.735 14.3762 11.1837 14.3887 9.85125ZM4.77622 15.4312L4.80122 19.715V19.7025H13.2012C14.4375 19.7025 15.5762 18.8987 15.6012 17.5675C15.6012 16.2237 14.4737 15.4312 13.2012 15.4312H4.77622ZM22.8137 6.6H27.6137V23.4H22.8137V6.6ZM48.6012 14.4837C48.6012 10.0912 45.6012 7.29625 42.0012 6.70875C41.5401 6.64036 41.0748 6.60402 40.6087 6.6C39.0612 6.6 37.225 6.8875 35.4012 7.8V6.6H30.6012V23.4H35.4012V14.975C35.4012 11.6037 37.3687 10.3912 39.6012 10.3912C42.0012 10.3912 43.8012 11.9762 43.8012 14.9762V23.4H48.6012V14.4837ZM83.1975 10.2837C79.4537 6.19125 74.6762 5.4 72.0137 5.4V10.38C73.9812 10.38 77.5337 10.9925 80.1375 14.3875C77.5337 17.7837 73.9812 18.3962 72.0125 18.3962V23.375C74.6775 23.375 79.4537 22.5825 83.1975 18.49C87.0725 22.6062 91.4887 23.375 94.2487 23.375V18.395C92.365 18.395 89.125 17.915 86.2212 14.3862C89.125 10.8587 92.3775 10.3787 94.2487 10.3787V5.4C91.4887 5.4 87.0737 6.1675 83.1975 10.2837ZM64.8012 7.83625V6.59875H69.5887V21.3487C69.5887 24.0362 68.2087 29.9987 59.7375 29.9987C55.4887 29.9987 51.985 28.2487 50.3887 25.8112L53.9887 23.3987C54.7087 24.3837 56.605 25.7987 59.3887 25.7987C63.7812 25.7987 64.7887 22.7762 64.7887 21.3487C63.4687 22.2837 61.6212 22.7987 59.245 22.7987C54.6487 22.7987 50.4012 19.0437 50.4012 14.2437C50.4012 9.44375 54.685 6.6 59.2575 6.6C62.0287 6.6 64.105 7.5 64.8012 7.83625ZM55.2012 14.4962C55.2012 16.7637 57.3487 18.6 60.0012 18.6C62.6525 18.6 64.8012 16.7637 64.8012 14.4962C64.8012 12.2275 62.6525 10.3912 60.0012 10.3912C57.3487 10.3912 55.2012 12.2287 55.2012 14.4962Z" fill="#0047FF"/>
</g>
<defs>
<clipPath id="clip0_1392_32516">
<rect width="95" height="30" fill="white"/>
</clipPath>
</defs>
</svg>
