<svg width="95" height="30" viewBox="0 0 95 30" fill="none" xmlns="http://www.w3.org/2000/svg">
<g clip-path="url(#clip0_1392_32384)">
<path fill-rule="evenodd" clip-rule="evenodd" d="M25.214 5.4C26.7015 5.4 27.914 4.1875 27.914 2.7C27.914 1.2125 26.7015 0 25.214 0C23.7265 0 22.514 1.2125 22.514 2.7C22.514 4.1875 23.7265 5.4 25.214 5.4ZM19.2015 9.4675C19.2565 10.8945 18.7576 12.2875 17.809 13.355V13.3675C18.554 13.8712 20.4015 15.2512 20.4015 17.9037C20.4015 20.9387 17.9177 23.4112 14.869 23.4112H0.00146484V4.2125H13.549C16.5252 4.2125 19.0577 6.515 19.2015 9.4675ZM14.389 9.85125C14.389 8.5075 13.274 7.9075 12.0015 7.9075H4.80146V11.735H12.0015C13.249 11.735 14.3765 11.1837 14.389 9.85125ZM4.77646 15.4312L4.80146 19.715V19.7025H13.2015C14.4377 19.7025 15.5765 18.8987 15.6015 17.5675C15.6015 16.2237 14.474 15.4312 13.2015 15.4312H4.77646ZM22.814 6.6H27.614V23.4H22.814V6.6ZM48.6015 14.4837C48.6015 10.0912 45.6015 7.29625 42.0015 6.70875C41.5404 6.64036 41.0751 6.60402 40.609 6.6C39.0615 6.6 37.2252 6.8875 35.4015 7.8V6.6H30.6015V23.4H35.4015V14.975C35.4015 11.6037 37.369 10.3912 39.6015 10.3912C42.0015 10.3912 43.8015 11.9762 43.8015 14.9762V23.4H48.6015V14.4837ZM83.1977 10.2837C79.454 6.19125 74.6765 5.4 72.014 5.4V10.38C73.9815 10.38 77.534 10.9925 80.1377 14.3875C77.534 17.7837 73.9815 18.3962 72.0127 18.3962V23.375C74.6777 23.375 79.454 22.5825 83.1977 18.49C87.0727 22.6062 91.489 23.375 94.249 23.375V18.395C92.3652 18.395 89.1252 17.915 86.2215 14.3862C89.1252 10.8587 92.3777 10.3787 94.249 10.3787V5.4C91.489 5.4 87.074 6.1675 83.1977 10.2837ZM64.8015 7.83625V6.59875H69.589V21.3487C69.589 24.0362 68.209 29.9987 59.7377 29.9987C55.489 29.9987 51.9852 28.2487 50.389 25.8112L53.989 23.3987C54.709 24.3837 56.6052 25.7987 59.389 25.7987C63.7815 25.7987 64.789 22.7762 64.789 21.3487C63.469 22.2837 61.6215 22.7987 59.2452 22.7987C54.649 22.7987 50.4015 19.0437 50.4015 14.2437C50.4015 9.44375 54.6852 6.6 59.2577 6.6C62.029 6.6 64.1052 7.5 64.8015 7.83625ZM55.2015 14.4962C55.2015 16.7637 57.349 18.6 60.0015 18.6C62.6527 18.6 64.8015 16.7637 64.8015 14.4962C64.8015 12.2275 62.6527 10.3912 60.0015 10.3912C57.349 10.3912 55.2015 12.2287 55.2015 14.4962Z" fill="#E0EAFF"/>
</g>
<defs>
<clipPath id="clip0_1392_32384">
<rect width="95" height="30" fill="white"/>
</clipPath>
</defs>
</svg>
