<svg width="104" height="24" viewBox="0 0 104 24" fill="none" xmlns="http://www.w3.org/2000/svg">
<g clip-path="url(#clip0_1392_32505)">
<path d="M12.2109 18.5183C8.55604 18.5183 5.6326 15.5947 5.6326 11.94C5.6326 8.285 8.55604 5.36167 12.2109 5.36167V0C5.57137 0 0.210938 5.36033 0.210938 12C0.210938 18.6397 5.57137 24 12.2109 24C18.8506 24 24.2109 18.6397 24.2109 12H18.8506C18.7893 15.5937 15.8659 18.5183 12.2109 18.5183Z" fill="#0068FF"/>
<path d="M18.7893 5.36035H12.2109V11.9387H18.7893V5.36035Z" fill="#17E29D"/>
<path d="M37.794 10.5358V14.4935H43.8833L43.838 14.6015C42.8027 17.0852 40.3967 18.6895 37.708 18.6895C34.0467 18.6895 31.0687 15.7102 31.0687 12.0498C31.0687 8.3895 34.0477 5.41017 37.708 5.41017C39.8223 5.41017 41.7783 6.4035 43.0307 8.08984H47.8823C46.256 3.90417 42.228 1.12531 37.7093 1.12531C31.6853 1.12531 26.7847 6.02584 26.7847 12.0498C26.7847 18.0738 31.6853 22.9745 37.7093 22.9745C40.626 22.9745 43.3657 21.8378 45.4243 19.7748C47.4817 17.7132 48.6137 14.9688 48.6137 12.0498C48.6137 11.5078 48.5817 11.0122 48.516 10.5368H37.794V10.5358ZM103.673 13.9715C103.731 13.5485 103.733 13.1208 103.733 12.6822C103.733 7.45084 99.5307 3.21047 94.2993 3.21047C89.068 3.21047 84.8277 7.45084 84.8277 12.6822C84.8277 17.9135 89.068 22.1538 94.2993 22.1538C98.3907 22.1538 101.871 19.5568 103.194 15.9228H98.9183C97.8963 17.3768 96.212 18.3298 94.2993 18.3298C91.624 18.3298 89.3887 16.4675 88.8043 13.9702H99.7943H103.673V13.9715ZM89.1203 10.4288C89.991 8.4305 91.9803 7.0325 94.2993 7.0325C96.6183 7.0325 98.6077 8.4305 99.4783 10.4288H89.1213H89.1203ZM65.7437 5.01384C64.134 3.7515 62.109 2.9956 59.909 2.9956C54.6867 2.9956 50.4373 7.24484 50.4373 12.4675C50.4373 17.6898 54.6867 21.9392 59.909 21.9392C62.109 21.9392 64.134 21.1832 65.7437 19.9208V21.7945H69.5967V3.81384H65.7437V5.01517V5.01384ZM59.909 18.0282C56.843 18.0282 54.3483 15.5332 54.3483 12.4675C54.3483 9.4015 56.843 6.9065 59.909 6.9065C62.975 6.9065 65.47 9.4015 65.47 12.4675C65.47 15.5332 62.975 18.0282 59.909 18.0282ZM78.453 0.442871H74.248V3.81384H72.2753V7.66917H74.248V16.3572C74.248 19.4398 76.7563 21.9482 79.839 21.9482H83.357V17.8198H79.9157C79.1087 17.8198 78.453 17.1632 78.453 16.3572V7.66917H83.359V3.81384H78.453V0.442871Z" fill="white"/>
</g>
<defs>
<clipPath id="clip0_1392_32505">
<rect width="104" height="24" fill="white"/>
</clipPath>
</defs>
</svg>
