<svg width="137" height="20" viewBox="0 0 137 20" fill="none" xmlns="http://www.w3.org/2000/svg">
<g clip-path="url(#clip0_1392_32490)">
<path fill-rule="evenodd" clip-rule="evenodd" d="M4.15873 19.6621H22.1495C23.2309 19.6621 24.0174 18.384 23.4275 17.4992L14.383 1.8679C13.7931 0.786482 12.5151 0 11.1388 0C9.66411 0 8.28776 0.884793 7.6979 2.16283L0.914491 13.9601C-0.560164 16.4178 1.30773 19.6621 4.15873 19.6621Z" fill="#0043FF"/>
<path fill-rule="evenodd" clip-rule="evenodd" d="M18.311 5.8004C17.2296 3.93251 17.9177 1.57306 19.6873 0.589958C21.5552 -0.589765 23.9147 0.0984069 24.8978 1.9663L31.8778 13.9602C32.9592 15.8281 32.271 18.1875 30.5015 19.1706C28.6336 20.252 26.2741 19.5638 25.291 17.7943L18.311 5.8004Z" fill="#0043FF"/>
<path d="M124.877 5.01382C125.959 4.03072 127.728 3.53917 130.481 3.53917H136.773V0H129.399C127.63 0 126.155 0.196621 124.975 0.589862C123.796 0.983103 122.813 1.57296 121.928 2.35945C121.043 3.24424 120.257 4.32565 119.765 5.60369C119.273 6.88172 118.979 8.35637 118.979 9.92934C118.979 11.404 119.273 12.7803 119.765 14.0584C120.257 15.3364 121.043 16.4178 121.928 17.3026C122.813 18.0891 123.796 18.679 124.877 19.0722C126.057 19.4654 127.532 19.6621 129.301 19.6621H136.674V16.1229H130.383C129.006 16.1229 128.023 16.1229 127.433 15.9263C126.843 15.828 126.352 15.6313 125.86 15.3364C124.975 14.7465 124.287 14.0584 123.894 13.1736C123.501 12.2888 123.304 11.2074 123.304 9.83103C123.304 7.6682 123.796 5.99693 124.877 5.01382Z" fill="white"/>
<path d="M70.3171 19.6621H87.8164V16.2212H74.6428V11.3057H86.1451V8.06144H74.6428V3.53917H87.8164V0H70.3171V19.6621Z" fill="white"/>
<path d="M92.1426 0L100.302 9.83103L92.1426 19.6621H97.4513L103.94 11.8955V7.86482L97.4513 0H92.1426Z" fill="white"/>
<path d="M112.001 0L105.512 7.86482V11.8955L112.001 19.6621H117.31L109.15 9.83103L117.31 0H112.001Z" fill="white"/>
<path d="M53.21 9.73272L45.3452 0.0983103H41.3145V19.7604H45.5418V6.58679L52.4235 14.7465H54.0948L60.8782 6.48848V19.6621H65.1055V0H61.0748L53.21 9.73272Z" fill="white"/>
</g>
<defs>
<clipPath id="clip0_1392_32490">
<rect width="137" height="20" fill="white"/>
</clipPath>
</defs>
</svg>
