<svg width="174" height="28" viewBox="0 0 174 28" fill="none" xmlns="http://www.w3.org/2000/svg">
<path d="M33.6488 21.2398C33.2464 21.2398 32.9619 21.1564 32.7954 20.99C32.6427 20.8235 32.5664 20.5598 32.5664 20.199V8.14748C32.5664 7.78669 32.6496 7.52304 32.8162 7.35653C32.9827 7.17614 33.2602 7.08594 33.6488 7.08594H38.7483C40.6909 7.08594 42.1202 7.4953 43.0361 8.31399C43.9519 9.13269 44.4098 10.3538 44.4098 11.9773C44.4098 13.587 43.9519 14.8011 43.0361 15.6198C42.1341 16.4247 40.7048 16.8271 38.7483 16.8271H36.7709V20.199C36.7709 20.5598 36.6877 20.8235 36.5211 20.99C36.3546 21.1564 36.0701 21.2398 35.6677 21.2398H33.6488ZM38.4153 13.809C38.9842 13.809 39.4213 13.6564 39.7266 13.3511C40.0457 13.0458 40.2053 12.5879 40.2053 11.9773C40.2053 11.3529 40.0457 10.888 39.7266 10.5828C39.4213 10.2775 38.9842 10.1248 38.4153 10.1248H36.7709V13.809H38.4153Z" fill="white"/>
<path d="M49.3241 21.5518C48.0198 21.5518 46.9722 21.1355 46.1812 20.3031C45.4041 19.4566 45.0156 18.2702 45.0156 16.7437C45.0156 15.5781 45.2793 14.5582 45.8065 13.684C46.3477 12.8098 47.104 12.1368 48.0753 11.665C49.0606 11.1794 50.1914 10.9365 51.468 10.9365C52.5227 10.9365 53.4524 11.0545 54.2572 11.2904C55.0759 11.5124 55.8252 11.8385 56.5051 12.2687V20.5944C56.5051 20.8581 56.4566 21.0315 56.3594 21.1147C56.2623 21.1981 56.068 21.2397 55.7767 21.2397H53.6536C53.5009 21.2397 53.383 21.2189 53.2998 21.1771C53.2165 21.1218 53.1472 21.0384 53.0916 20.9274L52.821 20.3031C52.4186 20.7331 51.933 21.0454 51.364 21.2397C50.809 21.4478 50.129 21.5518 49.3241 21.5518ZM50.8853 18.7211C51.4264 18.7211 51.8496 18.5892 52.1549 18.3257C52.4602 18.062 52.6128 17.6873 52.6128 17.2016V13.9546C52.3493 13.8297 52.0162 13.7673 51.6138 13.7673C50.8783 13.7673 50.2886 14.024 49.8446 14.5374C49.4144 15.0508 49.1993 15.7724 49.1993 16.7021C49.1993 18.0481 49.7612 18.7211 50.8853 18.7211Z" fill="white"/>
<path d="M59.4039 21.2397C59.0014 21.2397 58.7169 21.1563 58.5505 20.9899C58.384 20.8234 58.3008 20.5597 58.3008 20.1989V11.894C58.3008 11.6442 58.3424 11.4777 58.4256 11.3944C58.5227 11.2973 58.717 11.2488 59.0084 11.2488H61.1524C61.3188 11.2488 61.4437 11.2765 61.5269 11.332C61.624 11.3736 61.6796 11.4569 61.6935 11.5818L61.7975 12.2062C62.1861 11.8177 62.6926 11.5124 63.3169 11.2904C63.9553 11.0545 64.663 10.9365 65.4401 10.9365C66.564 10.9365 67.4729 11.2557 68.1667 11.894C68.8606 12.5184 69.2074 13.4481 69.2074 14.6831V20.1989C69.2074 20.5597 69.1242 20.8234 68.9577 20.9899C68.8051 21.1563 68.5275 21.2397 68.1251 21.2397H66.1061C65.7037 21.2397 65.4124 21.1563 65.2319 20.9899C65.0654 20.8234 64.9822 20.5597 64.9822 20.1989V14.9537C64.9822 14.5374 64.8919 14.2391 64.7116 14.0587C64.5311 13.8783 64.2467 13.7881 63.8582 13.7881C63.4419 13.7881 63.1088 13.8991 62.859 14.1211C62.6232 14.3431 62.5053 14.6484 62.5053 15.037V20.1989C62.5053 20.5597 62.4219 20.8234 62.2555 20.9899C62.1029 21.1563 61.8253 21.2397 61.4229 21.2397H59.4039Z" fill="white"/>
<path d="M76.5583 21.5518C74.6157 21.5518 73.117 21.1008 72.0623 20.1989C71.0078 19.297 70.4805 17.9857 70.4805 16.265C70.4805 15.2105 70.7233 14.2807 71.2089 13.4759C71.6947 12.6711 72.3954 12.0466 73.3112 11.6026C74.241 11.1585 75.3372 10.9365 76.5999 10.9365C77.5573 10.9365 78.3623 11.0267 79.0144 11.2071C79.6805 11.3875 80.2702 11.665 80.7836 12.0397C80.9362 12.1368 81.0126 12.2617 81.0126 12.4144C81.0126 12.5254 80.9571 12.6711 80.846 12.8514L79.9926 14.3292C79.8955 14.5236 79.7776 14.6207 79.6388 14.6207C79.5555 14.6207 79.4237 14.5652 79.2434 14.4542C78.8687 14.2183 78.5149 14.0448 78.1818 13.9338C77.8626 13.8228 77.4602 13.7673 76.9746 13.7673C76.2807 13.7673 75.7188 13.9893 75.2886 14.4334C74.8723 14.8774 74.6642 15.4879 74.6642 16.265C74.6642 17.056 74.8792 17.6665 75.3094 18.0966C75.7396 18.5129 76.3294 18.7211 77.0786 18.7211C77.5226 18.7211 77.9251 18.6587 78.2859 18.5337C78.6467 18.4089 79.0144 18.2355 79.3891 18.0134C79.5833 17.9024 79.7221 17.8469 79.8054 17.8469C79.9302 17.8469 80.0412 17.944 80.1384 18.1384L81.075 19.741C81.1444 19.8797 81.1791 19.9908 81.1791 20.074C81.1791 20.1989 81.0958 20.3168 80.9294 20.4279C80.3465 20.8026 79.7081 21.08 79.0144 21.2605C78.3344 21.4547 77.5157 21.5518 76.5583 21.5518Z" fill="white"/>
<path d="M86.4571 21.5518C85.1527 21.5518 84.105 21.1355 83.3141 20.3031C82.5371 19.4566 82.1484 18.2702 82.1484 16.7437C82.1484 15.5781 82.4121 14.5582 82.9394 13.684C83.4805 12.8098 84.2368 12.1368 85.2082 11.665C86.1934 11.1794 87.3244 10.9365 88.601 10.9365C89.6555 10.9365 90.5852 11.0545 91.39 11.2904C92.2087 11.5124 92.9581 11.8385 93.6381 12.2687V20.5944C93.6381 20.8581 93.5895 21.0315 93.4923 21.1147C93.3952 21.1981 93.201 21.2397 92.9095 21.2397H90.7865C90.6339 21.2397 90.5158 21.2189 90.4326 21.1771C90.3494 21.1218 90.28 21.0384 90.2245 20.9274L89.9539 20.3031C89.5515 20.7331 89.0658 21.0454 88.4968 21.2397C87.9418 21.4478 87.2619 21.5518 86.4571 21.5518ZM88.0181 18.7211C88.5594 18.7211 88.9826 18.5892 89.2878 18.3257C89.5931 18.062 89.7458 17.6873 89.7458 17.2016V13.9546C89.4821 13.8297 89.1491 13.7673 88.7466 13.7673C88.0112 13.7673 87.4215 14.024 86.9774 14.5374C86.5473 15.0508 86.3321 15.7724 86.3321 16.7021C86.3321 18.0481 86.8942 18.7211 88.0181 18.7211Z" fill="white"/>
<path d="M106.715 20.4488C106.812 20.5598 106.861 20.6847 106.861 20.8235C106.861 20.9483 106.819 21.0524 106.736 21.1356C106.653 21.205 106.542 21.2398 106.403 21.2398H103.177C102.982 21.2398 102.837 21.2258 102.739 21.1982C102.656 21.1564 102.566 21.0801 102.469 20.9692L99.6381 17.1185V20.199C99.6381 20.5598 99.5549 20.8235 99.3883 20.99C99.2218 21.1564 98.9373 21.2398 98.5349 21.2398H96.516C96.1136 21.2398 95.8291 21.1564 95.6625 20.99C95.5099 20.8235 95.4336 20.5598 95.4336 20.199V8.14748C95.4336 7.78669 95.5168 7.52304 95.6834 7.35653C95.8499 7.17614 96.1275 7.08594 96.516 7.08594H98.5349C98.9373 7.08594 99.2218 7.17614 99.3883 7.35653C99.5549 7.52304 99.6381 7.78669 99.6381 8.14748V15.1203L102.386 11.5402C102.469 11.4292 102.559 11.3529 102.656 11.3113C102.753 11.2696 102.899 11.2488 103.093 11.2488H106.32C106.458 11.2488 106.562 11.2904 106.632 11.3737C106.715 11.4431 106.757 11.5402 106.757 11.6651C106.757 11.8039 106.708 11.9288 106.611 12.0398L103.052 16.1195L106.715 20.4488Z" fill="white"/>
<path d="M113.471 21.5518C112.305 21.5518 111.265 21.3576 110.349 20.9691C109.447 20.5805 108.732 19.9977 108.205 19.2207C107.678 18.4436 107.414 17.4931 107.414 16.3691C107.414 14.6068 107.914 13.2608 108.913 12.3311C109.912 11.4014 111.348 10.9365 113.221 10.9365C115.053 10.9365 116.441 11.3944 117.384 12.3103C118.342 13.2122 118.82 14.4681 118.82 16.0776C118.82 16.7715 118.515 17.1184 117.905 17.1184H111.369C111.369 17.715 111.591 18.1731 112.035 18.4921C112.493 18.8113 113.18 18.9708 114.095 18.9708C114.664 18.9708 115.136 18.9223 115.511 18.8252C115.899 18.7142 116.288 18.5547 116.676 18.3465C116.843 18.2771 116.954 18.2424 117.009 18.2424C117.134 18.2424 117.238 18.3257 117.322 18.4921L118.029 19.8242C118.099 19.9631 118.134 20.0671 118.134 20.1365C118.134 20.2613 118.05 20.3794 117.884 20.4903C117.315 20.865 116.67 21.1355 115.948 21.3021C115.226 21.4686 114.401 21.5518 113.471 21.5518ZM115.074 15.0578C115.074 14.5305 114.921 14.1211 114.616 13.8297C114.311 13.5383 113.853 13.3926 113.242 13.3926C112.631 13.3926 112.167 13.5453 111.848 13.8505C111.528 14.142 111.369 14.5444 111.369 15.0578H115.074Z" fill="white"/>
<path d="M125.955 21.5516C124.79 21.5516 123.686 21.4337 122.646 21.1979C121.605 20.948 120.766 20.6011 120.127 20.1571C119.891 20.0045 119.773 19.8448 119.773 19.6784C119.773 19.5674 119.815 19.4495 119.898 19.3245L120.918 17.701C121.029 17.5345 121.14 17.4513 121.251 17.4513C121.321 17.4513 121.439 17.4998 121.605 17.5969C122.118 17.8884 122.701 18.1242 123.353 18.3046C124.006 18.485 124.651 18.5752 125.289 18.5752C125.941 18.5752 126.42 18.4781 126.725 18.2838C127.045 18.0895 127.204 17.7774 127.204 17.3471C127.204 16.9308 127.031 16.6048 126.684 16.3689C126.351 16.1329 125.719 15.8347 124.79 15.4739C123.388 14.9466 122.292 14.3568 121.501 13.7046C120.724 13.0386 120.335 12.1366 120.335 10.9988C120.335 9.62501 120.828 8.57736 121.813 7.85578C122.798 7.13422 124.11 6.77344 125.747 6.77344C126.885 6.77344 127.856 6.87751 128.661 7.08565C129.48 7.27992 130.174 7.5852 130.742 8.00149C130.978 8.18188 131.096 8.34839 131.096 8.50104C131.096 8.59817 131.055 8.70918 130.971 8.83407L129.952 10.4576C129.827 10.6241 129.716 10.7074 129.619 10.7074C129.549 10.7074 129.431 10.6588 129.265 10.5617C128.46 10.0344 127.502 9.77071 126.392 9.77071C125.796 9.77071 125.338 9.86784 125.019 10.0621C124.7 10.2564 124.54 10.5755 124.54 11.0196C124.54 11.3249 124.623 11.5746 124.79 11.7689C124.956 11.9632 125.178 12.1366 125.456 12.2893C125.747 12.428 126.191 12.6084 126.788 12.8304L127.183 12.9761C128.21 13.3785 129.015 13.7671 129.598 14.1418C130.195 14.5025 130.645 14.9535 130.951 15.4947C131.256 16.0219 131.409 16.688 131.409 17.4929C131.409 18.7279 130.944 19.7131 130.014 20.4485C129.098 21.184 127.745 21.5516 125.955 21.5516Z" fill="white"/>
<path d="M135.834 21.2395C135.626 21.2395 135.467 21.2048 135.355 21.1353C135.244 21.066 135.161 20.9272 135.106 20.719L132.421 11.7273C132.393 11.644 132.379 11.5816 132.379 11.5399C132.379 11.3457 132.518 11.2485 132.795 11.2485H135.542C135.723 11.2485 135.854 11.2832 135.938 11.3526C136.022 11.4081 136.077 11.5052 136.104 11.644L137.228 16.3689L138.644 12.5598C138.714 12.3933 138.783 12.2823 138.852 12.2268C138.935 12.1574 139.075 12.1227 139.269 12.1227H140.579C140.774 12.1227 140.906 12.1574 140.975 12.2268C141.059 12.2823 141.134 12.3933 141.205 12.5598L142.599 16.3689L143.744 11.644C143.785 11.5052 143.84 11.4081 143.91 11.3526C143.979 11.2832 144.105 11.2485 144.284 11.2485H147.053C147.33 11.2485 147.47 11.3457 147.47 11.5399C147.47 11.5816 147.456 11.644 147.428 11.7273L144.722 20.719C144.667 20.9272 144.583 21.066 144.472 21.1353C144.375 21.2048 144.222 21.2395 144.014 21.2395H141.975C141.78 21.2395 141.634 21.2048 141.537 21.1353C141.44 21.0521 141.357 20.9134 141.287 20.719L139.913 16.9516L138.54 20.719C138.484 20.9134 138.401 21.0521 138.29 21.1353C138.193 21.2048 138.048 21.2395 137.854 21.2395H135.834Z" fill="white"/>
<path d="M152.743 21.5518C151.438 21.5518 150.391 21.1355 149.599 20.3031C148.823 19.4566 148.434 18.2702 148.434 16.7437C148.434 15.5781 148.697 14.5582 149.225 13.684C149.765 12.8098 150.522 12.1368 151.493 11.665C152.479 11.1794 153.61 10.9365 154.886 10.9365C155.941 10.9365 156.87 11.0545 157.675 11.2904C158.494 11.5124 159.244 11.8385 159.923 12.2687V20.5944C159.923 20.8581 159.874 21.0315 159.777 21.1147C159.68 21.1981 159.487 21.2397 159.195 21.2397H157.072C156.919 21.2397 156.802 21.2189 156.718 21.1771C156.634 21.1218 156.565 21.0384 156.51 20.9274L156.24 20.3031C155.837 20.7331 155.351 21.0454 154.782 21.2397C154.227 21.4478 153.548 21.5518 152.743 21.5518ZM154.304 18.7211C154.844 18.7211 155.268 18.5892 155.574 18.3257C155.879 18.062 156.032 17.6873 156.032 17.2016V13.9546C155.767 13.8297 155.435 13.7673 155.032 13.7673C154.296 13.7673 153.707 14.024 153.263 14.5374C152.833 15.0508 152.617 15.7724 152.617 16.7021C152.617 18.0481 153.18 18.7211 154.304 18.7211Z" fill="white"/>
<path d="M162.801 25.4442C162.398 25.4442 162.115 25.361 161.947 25.1944C161.794 25.0279 161.719 24.7642 161.719 24.4034V12.4768C162.343 12.0328 163.128 11.665 164.07 11.3736C165.015 11.0822 165.999 10.9365 167.026 10.9365C171.217 10.9365 173.312 12.7127 173.312 16.265C173.312 17.8747 172.868 19.1582 171.98 20.1157C171.092 21.0731 169.837 21.5518 168.213 21.5518C167.755 21.5518 167.311 21.4963 166.88 21.3853C166.464 21.2744 166.117 21.1218 165.84 20.9274V24.4034C165.84 24.7642 165.756 25.0279 165.59 25.1944C165.424 25.361 165.139 25.4442 164.736 25.4442H162.801ZM167.318 18.7419C167.915 18.7419 168.359 18.5199 168.649 18.0758C168.955 17.6179 169.107 17.0074 169.107 16.2442C169.107 15.3423 168.928 14.7108 168.567 14.35C168.22 13.9754 167.678 13.7881 166.943 13.7881C166.471 13.7881 166.097 13.8505 165.82 13.9754V17.2849C165.82 17.7568 165.951 18.1175 166.214 18.3673C166.479 18.6171 166.846 18.7419 167.318 18.7419Z" fill="white"/>
<path fill-rule="evenodd" clip-rule="evenodd" d="M12.7763 26.8269C8.83312 26.8239 5.65678 25.8777 3.43743 24.1782C1.19147 22.4583 0 20.0175 0 17.2556C0 14.5945 1.18886 12.6756 2.53405 11.3785C3.58826 10.3621 4.7516 9.71105 5.56164 9.33659C5.37845 8.77442 5.14992 8.03844 4.94544 7.27829C4.67185 6.26111 4.40344 5.06768 4.40344 4.19313C4.40344 3.15799 4.62912 2.11843 5.23764 1.31064C5.88056 0.457198 6.84844 0 8.01282 0C8.92283 0 9.69542 0.337557 10.3003 0.919878C10.8784 1.4765 11.2632 2.2157 11.5289 2.98627C11.9958 4.34031 12.1776 6.04144 12.2285 7.73908H13.3439C13.3949 6.04144 13.5766 4.34031 14.0436 2.98627C14.3092 2.2157 14.6939 1.4765 15.2722 0.919878C15.8771 0.337557 16.6496 0 17.5596 0C18.7241 0 19.6919 0.457198 20.3348 1.31064C20.9433 2.11843 21.1691 3.15799 21.1691 4.19313C21.1691 5.06768 20.9005 6.26111 20.627 7.27829C20.4225 8.03844 20.1939 8.77442 20.0108 9.33659C20.8208 9.71105 21.9842 10.3621 23.0384 11.3785C24.3836 12.6756 25.5724 14.5945 25.5724 17.2556C25.5724 20.0175 24.381 22.4583 22.135 24.1782C19.9157 25.8777 16.7393 26.8239 12.7961 26.8269H12.7763Z" fill="#633001"/>
<path d="M8.00328 0.984375C6.29786 0.984375 5.51282 2.26967 5.51282 4.04719C5.51282 5.46007 6.42497 8.28968 6.79922 9.39119C6.8834 9.63895 6.75114 9.91039 6.5099 10.0065C5.14306 10.5509 1.10938 12.5444 1.10938 17.1098C1.10938 21.9189 5.20852 25.545 12.7677 25.5508C12.7707 25.5508 12.7737 25.5506 12.7767 25.5506C12.7797 25.5506 12.7827 25.5508 12.7857 25.5508C20.3448 25.545 24.4439 21.9189 24.4439 17.1098C24.4439 12.5444 20.4103 10.5509 19.0435 10.0065C18.8022 9.91039 18.67 9.63895 18.7542 9.39119C19.1284 8.28968 20.0406 5.46007 20.0406 4.04719C20.0406 2.26967 19.2556 0.984375 17.5501 0.984375C15.0952 0.984375 14.4832 4.4973 14.4396 8.26753C14.4367 8.51923 14.2352 8.72345 13.9861 8.72345H11.5673C11.3181 8.72345 11.1167 8.51923 11.1138 8.26753C11.0701 4.4973 10.4582 0.984375 8.00328 0.984375Z" fill="#D1884F"/>
<path d="M12.7857 24.0104C7.23163 24.0104 1.11898 21.007 1.1094 17.1191C1.10939 17.1251 1.10938 17.1312 1.10938 17.1372C1.10938 21.9502 5.21505 25.5782 12.7857 25.5782C20.3564 25.5782 24.462 21.9502 24.462 17.1372C24.462 17.1312 24.462 17.1251 24.462 17.1191C24.4524 21.007 18.3397 24.0104 12.7857 24.0104Z" fill="#FEDC90"/>
<path d="M9.70406 15.925C9.70406 17.2377 9.09 17.9213 8.33251 17.9213C7.575 17.9213 6.96094 17.2377 6.96094 15.925C6.96094 14.6123 7.575 13.9287 8.33251 13.9287C9.09 13.9287 9.70406 14.6123 9.70406 15.925Z" fill="#633001"/>
<path d="M18.6181 15.925C18.6181 17.2377 18.0041 17.9213 17.2466 17.9213C16.4891 17.9213 15.875 17.2377 15.875 15.925C15.875 14.6123 16.4891 13.9287 17.2466 13.9287C18.0041 13.9287 18.6181 14.6123 18.6181 15.925Z" fill="#633001"/>
</svg>
