<svg width="174" height="28" viewBox="0 0 174 28" fill="none" xmlns="http://www.w3.org/2000/svg">
<g clip-path="url(#clip0_1392_32451)">
<path d="M33.5999 21.2393C33.1975 21.2393 32.9131 21.1559 32.7465 20.9895C32.5939 20.823 32.5176 20.5593 32.5176 20.1985V8.14699C32.5176 7.78621 32.6008 7.52255 32.7673 7.35605C32.9339 7.17565 33.2113 7.08545 33.5999 7.08545H38.6994C40.6421 7.08545 42.0713 7.49481 42.9873 8.3135C43.9031 9.13221 44.361 10.3533 44.361 11.9768C44.361 13.5865 43.9031 14.8006 42.9873 15.6193C42.0852 16.4242 40.656 16.8266 38.6994 16.8266H36.7221V20.1985C36.7221 20.5593 36.6389 20.823 36.4723 20.9895C36.3058 21.1559 36.0213 21.2393 35.6189 21.2393H33.5999ZM38.3665 13.8085C38.9354 13.8085 39.3725 13.6559 39.6778 13.3506C39.9968 13.0453 40.1565 12.5874 40.1565 11.9768C40.1565 11.3524 39.9968 10.8876 39.6778 10.5823C39.3725 10.277 38.9354 10.1243 38.3665 10.1243H36.7221V13.8085H38.3665Z" fill="#E0EAFF"/>
<path d="M49.2812 21.5518C47.9769 21.5518 46.9292 21.1355 46.1382 20.3031C45.3611 19.4566 44.9727 18.2702 44.9727 16.7437C44.9727 15.5781 45.2363 14.5582 45.7635 13.684C46.3048 12.8098 47.0611 12.1368 48.0324 11.665C49.0176 11.1794 50.1485 10.9365 51.4251 10.9365C52.4797 10.9365 53.4095 11.0545 54.2142 11.2904C55.0329 11.5124 55.7822 11.8385 56.4622 12.2687V20.5944C56.4622 20.8581 56.4137 21.0315 56.3164 21.1147C56.2193 21.1981 56.0251 21.2397 55.7337 21.2397H53.6106C53.458 21.2397 53.34 21.2189 53.2568 21.1771C53.1735 21.1218 53.1042 21.0384 53.0487 20.9274L52.778 20.3031C52.3756 20.7331 51.89 21.0454 51.3211 21.2397C50.766 21.4478 50.0861 21.5518 49.2812 21.5518ZM50.8424 18.7211C51.3835 18.7211 51.8067 18.5892 52.1119 18.3257C52.4172 18.062 52.5698 17.6873 52.5698 17.2016V13.9546C52.3063 13.8297 51.9732 13.7673 51.5708 13.7673C50.8353 13.7673 50.2456 14.024 49.8016 14.5374C49.3714 15.0508 49.1563 15.7724 49.1563 16.7021C49.1563 18.0481 49.7183 18.7211 50.8424 18.7211Z" fill="#E0EAFF"/>
<path d="M59.3566 21.2397C58.9541 21.2397 58.6696 21.1563 58.5032 20.9899C58.3366 20.8234 58.2534 20.5597 58.2534 20.1989V11.894C58.2534 11.6442 58.295 11.4777 58.3782 11.3944C58.4753 11.2973 58.6696 11.2488 58.9611 11.2488H61.105C61.2714 11.2488 61.3964 11.2765 61.4796 11.332C61.5767 11.3736 61.6322 11.4569 61.6461 11.5818L61.7501 12.2062C62.1387 11.8177 62.6453 11.5124 63.2696 11.2904C63.9079 11.0545 64.6156 10.9365 65.3927 10.9365C66.5167 10.9365 67.4256 11.2557 68.1193 11.894C68.8132 12.5184 69.1601 13.4481 69.1601 14.6831V20.1989C69.1601 20.5597 69.0769 20.8234 68.9103 20.9899C68.7577 21.1563 68.4801 21.2397 68.0777 21.2397H66.0587C65.6564 21.2397 65.365 21.1563 65.1845 20.9899C65.018 20.8234 64.9348 20.5597 64.9348 20.1989V14.9537C64.9348 14.5374 64.8446 14.2391 64.6642 14.0587C64.4838 13.8783 64.1993 13.7881 63.8108 13.7881C63.3945 13.7881 63.0614 13.8991 62.8117 14.1211C62.5758 14.3431 62.4579 14.6484 62.4579 15.037V20.1989C62.4579 20.5597 62.3746 20.8234 62.2082 20.9899C62.0555 21.1563 61.7779 21.2397 61.3756 21.2397H59.3566Z" fill="#E0EAFF"/>
<path d="M76.5212 21.5518C74.5786 21.5518 73.0799 21.1008 72.0252 20.1989C70.9707 19.297 70.4434 17.9857 70.4434 16.265C70.4434 15.2105 70.6862 14.2807 71.1718 13.4759C71.6576 12.6711 72.3583 12.0466 73.2741 11.6026C74.2039 11.1585 75.3001 10.9365 76.5628 10.9365C77.5202 10.9365 78.3251 11.0267 78.9773 11.2071C79.6433 11.3875 80.2331 11.665 80.7465 12.0397C80.8991 12.1368 80.9755 12.2617 80.9755 12.4144C80.9755 12.5254 80.9199 12.6711 80.8089 12.8514L79.9555 14.3292C79.8584 14.5236 79.7405 14.6207 79.6017 14.6207C79.5184 14.6207 79.3866 14.5652 79.2062 14.4542C78.8315 14.2183 78.4778 14.0448 78.1447 13.9338C77.8255 13.8228 77.4231 13.7673 76.9375 13.7673C76.2436 13.7673 75.6817 13.9893 75.2515 14.4334C74.8352 14.8774 74.6271 15.4879 74.6271 16.265C74.6271 17.056 74.8421 17.6665 75.2723 18.0966C75.7025 18.5129 76.2923 18.7211 77.0415 18.7211C77.4855 18.7211 77.888 18.6587 78.2488 18.5337C78.6096 18.4089 78.9773 18.2355 79.352 18.0134C79.5462 17.9024 79.6849 17.8469 79.7683 17.8469C79.8931 17.8469 80.0041 17.944 80.1012 18.1384L81.0379 19.741C81.1073 19.8797 81.142 19.9908 81.142 20.074C81.142 20.1989 81.0587 20.3168 80.8923 20.4279C80.3094 20.8026 79.671 21.08 78.9773 21.2605C78.2973 21.4547 77.4786 21.5518 76.5212 21.5518Z" fill="#E0EAFF"/>
<path d="M86.4195 21.5518C85.1151 21.5518 84.0674 21.1355 83.2765 20.3031C82.4995 19.4566 82.1108 18.2702 82.1108 16.7437C82.1108 15.5781 82.3745 14.5582 82.9018 13.684C83.4429 12.8098 84.1992 12.1368 85.1706 11.665C86.1558 11.1794 87.2868 10.9365 88.5634 10.9365C89.6179 10.9365 90.5476 11.0545 91.3524 11.2904C92.1711 11.5124 92.9205 11.8385 93.6005 12.2687V20.5944C93.6005 20.8581 93.5519 21.0315 93.4547 21.1147C93.3576 21.1981 93.1634 21.2397 92.8719 21.2397H90.7489C90.5963 21.2397 90.4782 21.2189 90.395 21.1771C90.3118 21.1218 90.2424 21.0384 90.1869 20.9274L89.9163 20.3031C89.5139 20.7331 89.0282 21.0454 88.4592 21.2397C87.9042 21.4478 87.2243 21.5518 86.4195 21.5518ZM87.9805 18.7211C88.5218 18.7211 88.945 18.5892 89.2502 18.3257C89.5555 18.062 89.7082 17.6873 89.7082 17.2016V13.9546C89.4445 13.8297 89.1115 13.7673 88.709 13.7673C87.9736 13.7673 87.3839 14.024 86.9398 14.5374C86.5097 15.0508 86.2945 15.7724 86.2945 16.7021C86.2945 18.0481 86.8566 18.7211 87.9805 18.7211Z" fill="#E0EAFF"/>
<path d="M106.673 20.4483C106.77 20.5593 106.819 20.6842 106.819 20.823C106.819 20.9478 106.777 21.0519 106.694 21.1351C106.611 21.2046 106.5 21.2393 106.361 21.2393H103.135C102.94 21.2393 102.795 21.2254 102.697 21.1977C102.614 21.1559 102.524 21.0796 102.427 20.9687L99.5961 17.118V20.1985C99.5961 20.5593 99.5129 20.823 99.3463 20.9895C99.1798 21.1559 98.8953 21.2393 98.4929 21.2393H96.474C96.0716 21.2393 95.7871 21.1559 95.6206 20.9895C95.4679 20.823 95.3916 20.5593 95.3916 20.1985V8.14699C95.3916 7.78621 95.4748 7.52255 95.6414 7.35605C95.8079 7.17565 96.0855 7.08545 96.474 7.08545H98.4929C98.8953 7.08545 99.1798 7.17565 99.3463 7.35605C99.5129 7.52255 99.5961 7.78621 99.5961 8.14699V15.1198L102.344 11.5397C102.427 11.4287 102.517 11.3524 102.614 11.3108C102.711 11.2692 102.857 11.2483 103.051 11.2483H106.278C106.416 11.2483 106.52 11.29 106.59 11.3732C106.673 11.4426 106.715 11.5397 106.715 11.6646C106.715 11.8034 106.666 11.9283 106.569 12.0393L103.01 16.119L106.673 20.4483Z" fill="#E0EAFF"/>
<path d="M113.433 21.5518C112.268 21.5518 111.227 21.3576 110.311 20.9691C109.409 20.5805 108.695 19.9977 108.167 19.2207C107.64 18.4436 107.376 17.4931 107.376 16.3691C107.376 14.6068 107.876 13.2608 108.875 12.3311C109.874 11.4014 111.31 10.9365 113.184 10.9365C115.015 10.9365 116.403 11.3944 117.347 12.3103C118.304 13.2122 118.783 14.4681 118.783 16.0776C118.783 16.7715 118.478 17.1184 117.867 17.1184H111.331C111.331 17.715 111.553 18.1731 111.997 18.4921C112.455 18.8113 113.142 18.9708 114.058 18.9708C114.627 18.9708 115.099 18.9223 115.473 18.8252C115.862 18.7142 116.25 18.5547 116.639 18.3465C116.805 18.2771 116.916 18.2424 116.972 18.2424C117.097 18.2424 117.201 18.3257 117.284 18.4921L117.992 19.8242C118.061 19.9631 118.096 20.0671 118.096 20.1365C118.096 20.2613 118.013 20.3794 117.846 20.4903C117.277 20.865 116.632 21.1355 115.91 21.3021C115.189 21.4686 114.363 21.5518 113.433 21.5518ZM115.036 15.0578C115.036 14.5305 114.884 14.1211 114.578 13.8297C114.273 13.5383 113.815 13.3926 113.204 13.3926C112.594 13.3926 112.129 13.5453 111.81 13.8505C111.491 14.142 111.331 14.5444 111.331 15.0578H115.036Z" fill="#E0EAFF"/>
<path d="M125.918 21.5516C124.752 21.5516 123.649 21.4337 122.608 21.1979C121.567 20.948 120.728 20.6011 120.09 20.1571C119.854 20.0045 119.736 19.8448 119.736 19.6784C119.736 19.5674 119.777 19.4495 119.861 19.3245L120.881 17.701C120.992 17.5345 121.103 17.4513 121.214 17.4513C121.283 17.4513 121.401 17.4998 121.567 17.5969C122.081 17.8884 122.664 18.1242 123.316 18.3046C123.968 18.485 124.613 18.5752 125.252 18.5752C125.904 18.5752 126.382 18.4781 126.688 18.2838C127.007 18.0895 127.166 17.7774 127.166 17.3471C127.166 16.9308 126.993 16.6048 126.646 16.3689C126.313 16.1329 125.682 15.8347 124.752 15.4739C123.351 14.9466 122.254 14.3568 121.463 13.7046C120.686 13.0386 120.298 12.1366 120.298 10.9988C120.298 9.62501 120.79 8.57736 121.776 7.85578C122.761 7.13422 124.072 6.77344 125.71 6.77344C126.847 6.77344 127.819 6.87751 128.624 7.08565C129.442 7.27992 130.136 7.5852 130.705 8.00149C130.941 8.18188 131.059 8.34839 131.059 8.50104C131.059 8.59817 131.017 8.70918 130.934 8.83407L129.914 10.4576C129.789 10.6241 129.678 10.7074 129.581 10.7074C129.512 10.7074 129.394 10.6588 129.227 10.5617C128.422 10.0344 127.465 9.77071 126.355 9.77071C125.758 9.77071 125.3 9.86784 124.981 10.0621C124.662 10.2564 124.502 10.5755 124.502 11.0196C124.502 11.3249 124.586 11.5746 124.752 11.7689C124.919 11.9632 125.141 12.1366 125.418 12.2893C125.71 12.428 126.154 12.6084 126.75 12.8304L127.146 12.9761C128.173 13.3785 128.977 13.7671 129.56 14.1418C130.157 14.5025 130.608 14.9535 130.913 15.4947C131.218 16.0219 131.371 16.688 131.371 17.4929C131.371 18.7279 130.906 19.7131 129.976 20.4485C129.061 21.184 127.708 21.5516 125.918 21.5516Z" fill="#E0EAFF"/>
<path d="M135.791 21.2395C135.583 21.2395 135.424 21.2048 135.312 21.1353C135.201 21.066 135.118 20.9272 135.063 20.719L132.378 11.7273C132.35 11.644 132.336 11.5816 132.336 11.5399C132.336 11.3457 132.475 11.2485 132.752 11.2485H135.499C135.68 11.2485 135.811 11.2832 135.895 11.3526C135.979 11.4081 136.034 11.5052 136.061 11.644L137.185 16.3689L138.601 12.5598C138.671 12.3933 138.74 12.2823 138.809 12.2268C138.892 12.1574 139.032 12.1227 139.226 12.1227H140.536C140.731 12.1227 140.863 12.1574 140.932 12.2268C141.016 12.2823 141.092 12.3933 141.162 12.5598L142.556 16.3689L143.701 11.644C143.742 11.5052 143.797 11.4081 143.867 11.3526C143.936 11.2832 144.062 11.2485 144.241 11.2485H147.011C147.287 11.2485 147.427 11.3457 147.427 11.5399C147.427 11.5816 147.413 11.644 147.385 11.7273L144.679 20.719C144.624 20.9272 144.54 21.066 144.429 21.1353C144.332 21.2048 144.179 21.2395 143.971 21.2395H141.932C141.737 21.2395 141.591 21.2048 141.494 21.1353C141.397 21.0521 141.314 20.9134 141.244 20.719L139.87 16.9516L138.497 20.719C138.441 20.9134 138.358 21.0521 138.247 21.1353C138.15 21.2048 138.005 21.2395 137.811 21.2395H135.791Z" fill="#E0EAFF"/>
<path d="M152.706 21.5518C151.402 21.5518 150.355 21.1355 149.563 20.3031C148.786 19.4566 148.397 18.2702 148.397 16.7437C148.397 15.5781 148.661 14.5582 149.189 13.684C149.729 12.8098 150.486 12.1368 151.457 11.665C152.443 11.1794 153.574 10.9365 154.85 10.9365C155.905 10.9365 156.834 11.0545 157.639 11.2904C158.458 11.5124 159.208 11.8385 159.887 12.2687V20.5944C159.887 20.8581 159.838 21.0315 159.741 21.1147C159.644 21.1981 159.451 21.2397 159.159 21.2397H157.036C156.883 21.2397 156.765 21.2189 156.682 21.1771C156.598 21.1218 156.529 21.0384 156.474 20.9274L156.203 20.3031C155.801 20.7331 155.315 21.0454 154.746 21.2397C154.191 21.4478 153.511 21.5518 152.706 21.5518ZM154.268 18.7211C154.808 18.7211 155.232 18.5892 155.538 18.3257C155.843 18.062 155.995 17.6873 155.995 17.2016V13.9546C155.731 13.8297 155.398 13.7673 154.996 13.7673C154.26 13.7673 153.671 14.024 153.226 14.5374C152.797 15.0508 152.581 15.7724 152.581 16.7021C152.581 18.0481 153.144 18.7211 154.268 18.7211Z" fill="#E0EAFF"/>
<path d="M162.758 25.4442C162.355 25.4442 162.072 25.361 161.904 25.1944C161.751 25.0279 161.676 24.7642 161.676 24.4034V12.4768C162.3 12.0328 163.085 11.665 164.027 11.3736C164.972 11.0822 165.956 10.9365 166.983 10.9365C171.174 10.9365 173.269 12.7127 173.269 16.265C173.269 17.8747 172.825 19.1582 171.937 20.1157C171.049 21.0731 169.794 21.5518 168.17 21.5518C167.712 21.5518 167.268 21.4963 166.837 21.3853C166.421 21.2744 166.074 21.1218 165.797 20.9274V24.4034C165.797 24.7642 165.713 25.0279 165.547 25.1944C165.381 25.361 165.096 25.4442 164.693 25.4442H162.758ZM167.275 18.7419C167.872 18.7419 168.316 18.5199 168.606 18.0758C168.912 17.6179 169.064 17.0074 169.064 16.2442C169.064 15.3423 168.885 14.7108 168.524 14.35C168.177 13.9754 167.635 13.7881 166.9 13.7881C166.428 13.7881 166.054 13.8505 165.777 13.9754V17.2849C165.777 17.7568 165.908 18.1175 166.171 18.3673C166.436 18.6171 166.803 18.7419 167.275 18.7419Z" fill="#E0EAFF"/>
<path d="M17.5142 0C18.6786 0 19.6466 0.457219 20.2896 1.31055C20.8981 2.11833 21.1245 3.15822 21.1245 4.19336C21.1245 5.06788 20.855 6.26122 20.5815 7.27832C20.377 8.03842 20.1485 8.77478 19.9653 9.33691C20.7754 9.71138 21.9395 10.3624 22.9937 11.3789C24.3387 12.676 25.5278 14.595 25.5278 17.2559C25.5278 20.0174 24.336 22.4579 22.0903 24.1777C19.8711 25.8772 16.6945 26.8241 12.7515 26.8271H12.731C8.7879 26.8241 5.61136 25.8772 3.39209 24.1777C1.14648 22.4579 -0.0453382 20.0175 -0.0454102 17.2559C-0.0454102 14.5949 1.14371 12.676 2.48877 11.3789C3.54298 10.3624 4.70704 9.71138 5.51709 9.33691C5.33391 8.77478 5.10535 8.03842 4.90088 7.27832C4.62731 6.26122 4.35893 5.06788 4.35889 4.19336C4.35889 3.15822 4.58436 2.11833 5.19287 1.31055C5.83579 0.457218 6.80397 0 7.96826 0C8.87808 0.000115155 9.65062 0.3377 10.2554 0.919922C10.8335 1.47653 11.2182 2.21579 11.4839 2.98633C11.9508 4.34036 12.1321 6.04164 12.1831 7.73926H13.2993C13.3504 6.04164 13.5316 4.34036 13.9985 2.98633C14.2642 2.21579 14.6488 1.47653 15.2271 0.919922C15.8318 0.337683 16.6043 9.54958e-05 17.5142 0ZM8.29053 13.9287C7.53326 13.929 6.91945 14.6125 6.91943 15.9248C6.91943 17.2372 7.53324 17.9206 8.29053 17.9209C9.04802 17.9209 9.6626 17.2375 9.6626 15.9248C9.66258 14.6122 9.04801 13.9287 8.29053 13.9287ZM17.2075 13.9287C16.4502 13.9289 15.8364 14.6123 15.8364 15.9248C15.8364 17.2373 16.4501 17.9207 17.2075 17.9209C17.965 17.9209 18.5796 17.2375 18.5796 15.9248C18.5796 14.6122 17.965 13.9287 17.2075 13.9287Z" fill="#E0EAFF"/>
</g>
<defs>
<clipPath id="clip0_1392_32451">
<rect width="174" height="28" fill="white"/>
</clipPath>
</defs>
</svg>
