<svg width="148" height="36" viewBox="0 0 148 36" fill="none" xmlns="http://www.w3.org/2000/svg">
<g clip-path="url(#clip0_1392_32393)">
<path d="M10.3326 2.68957C9.86535 2.61751 9.84566 2.60905 10.0655 2.57545C10.4869 2.51103 11.4819 2.59884 12.1675 2.76093C13.7682 3.13923 15.2247 4.10832 16.7793 5.82943L17.1924 6.28666L17.7833 6.19222C20.2725 5.79448 22.8048 6.11059 24.923 7.08343C25.5056 7.35108 26.4243 7.88385 26.5391 8.02075C26.5757 8.0644 26.6427 8.34526 26.6883 8.64498C26.8455 9.68184 26.7668 10.4766 26.4479 11.0702C26.2743 11.3933 26.2646 11.4956 26.3813 11.7721C26.4744 11.9927 26.7342 12.156 26.9913 12.1556C27.5177 12.1549 28.0842 11.3089 28.3467 10.1318L28.451 9.66423L28.6575 9.89686C29.7906 11.1732 30.6804 12.9138 30.8334 14.1527L30.8732 14.4758L30.6827 14.1821C30.3549 13.6768 30.0257 13.3328 29.6039 13.0553C28.8437 12.5552 28.04 12.385 25.9112 12.2735C23.9886 12.1728 22.9005 12.0095 21.8216 11.6597C19.9859 11.0646 19.0605 10.272 16.88 7.4275C15.9114 6.16404 15.3128 5.46499 14.7173 4.90204C13.3641 3.6229 12.0346 2.95206 10.3326 2.68957Z" fill="#E0EAFF"/>
<path d="M26.9734 5.51065C27.0217 4.664 27.1372 4.10558 27.3694 3.5956C27.4613 3.39373 27.5474 3.22852 27.5606 3.22852C27.574 3.22852 27.5339 3.37753 27.4718 3.5596C27.3031 4.05454 27.2753 4.73149 27.3916 5.51911C27.5392 6.51844 27.6232 6.66263 28.6855 7.74214C29.1838 8.24848 29.7634 8.88707 29.9734 9.16124L30.3554 9.65977L29.9734 9.30349C29.5063 8.86781 28.4318 8.01812 28.1945 7.89667C28.0354 7.8152 28.0117 7.81661 27.9136 7.91375C27.8231 8.00327 27.8041 8.13776 27.7915 8.77361C27.772 9.7646 27.6361 10.4007 27.3082 11.0367C27.1309 11.3807 27.103 11.3073 27.2633 10.919C27.3832 10.6291 27.3953 10.5016 27.3944 9.5423C27.3926 7.61474 27.1625 7.15135 25.8127 6.35752C25.4708 6.15641 24.9074 5.86639 24.5608 5.71298C24.2141 5.55956 23.9387 5.42594 23.9488 5.41597C23.987 5.37814 25.3033 5.76014 25.8331 5.96276C26.6212 6.26419 26.7512 6.30325 26.8471 6.26689C26.9111 6.24251 26.9422 6.05674 26.9734 5.51065Z" fill="#E0EAFF"/>
<path d="M11.2413 8.80818C10.2927 7.50976 9.70583 5.51902 9.83289 4.03084L9.87218 3.57031L10.0881 3.60949C10.4936 3.68302 11.1927 3.94174 11.52 4.13944C12.4184 4.6819 12.8072 5.3961 13.2029 7.23003C13.3188 7.76719 13.4709 8.37508 13.5408 8.58088C13.6535 8.91213 14.0792 9.68589 14.4252 10.1884C14.6744 10.5503 14.5088 10.7218 13.9578 10.6724C13.1163 10.5968 11.9766 9.81468 11.2413 8.80818Z" fill="#E0EAFF"/>
<path d="M25.8206 18.4716C21.3878 16.697 19.8264 15.1566 19.8264 12.5577C19.8264 12.1752 19.8398 11.8623 19.8558 11.8623C19.872 11.8623 20.0435 11.9885 20.237 12.1428C21.1359 12.8596 22.1424 13.1658 24.929 13.57C26.5688 13.8079 27.4916 14 28.3428 14.2806C31.0484 15.1728 32.7224 16.9833 33.1215 19.4493C33.2375 20.1659 33.1695 21.5096 32.9814 22.2179C32.8329 22.7772 32.3799 23.7855 32.2598 23.8241C32.2265 23.8349 32.1938 23.7078 32.1852 23.5352C32.1396 22.6092 31.6689 21.7077 30.8786 21.0324C29.9799 20.2646 28.7726 19.6533 25.8206 18.4716Z" fill="#E0EAFF"/>
<path d="M22.7107 19.2091C22.6552 18.8806 22.5589 18.4609 22.4967 18.2765L22.3836 17.9414L22.5937 18.176C22.8844 18.5003 23.1142 18.9155 23.3089 19.4686C23.4574 19.8907 23.4742 20.0161 23.473 20.7019C23.472 21.3752 23.4534 21.5164 23.3161 21.8963C23.0998 22.4953 22.8312 22.9201 22.3806 23.3759C21.5709 24.1954 20.5299 24.649 19.0275 24.8372C18.7663 24.8699 18.0052 24.925 17.3361 24.9595C15.6498 25.0468 14.5399 25.2269 13.5427 25.5751C13.3993 25.6252 13.2714 25.6556 13.2583 25.6427C13.218 25.6027 13.897 25.2002 14.4577 24.9317C15.2485 24.553 16.0357 24.3463 17.7996 24.0542C18.6708 23.9099 19.5705 23.7349 19.7991 23.6653C21.9567 23.0075 23.0658 21.3101 22.7107 19.2091Z" fill="#E0EAFF"/>
<path d="M24.7404 22.7971C24.1515 21.5383 24.0162 20.3228 24.3389 19.1894C24.3735 19.0684 24.4289 18.9692 24.4623 18.9692C24.4958 18.9692 24.6347 19.0439 24.7712 19.1351C25.0425 19.3168 25.5869 19.6228 27.0371 20.4089C28.8467 21.3898 29.8784 22.1494 30.5799 23.0173C31.1945 23.7773 31.5747 24.6428 31.7577 25.6984C31.8614 26.2963 31.8006 27.7349 31.6463 28.337C31.1598 30.2354 30.029 31.7266 28.4162 32.5967C28.1799 32.7242 27.9677 32.8288 27.9447 32.8294C27.9218 32.8298 28.0079 32.6122 28.1361 32.3456C28.6787 31.2179 28.7405 30.121 28.3302 28.9001C28.0791 28.1525 27.567 27.2404 26.5331 25.6987C25.331 23.9063 25.0362 23.4292 24.7404 22.7971Z" fill="#E0EAFF"/>
<path d="M8.09057 29.5891C9.73556 28.208 11.7823 27.227 13.6467 26.9258C14.4501 26.7961 15.7887 26.8475 16.5327 27.037C17.7254 27.3404 18.7923 28.0201 19.347 28.8299C19.8894 29.6215 20.1219 30.3112 20.3642 31.8457C20.4597 32.4511 20.5637 33.0589 20.595 33.1966C20.777 33.9919 21.131 34.6276 21.5696 34.9468C22.2663 35.4538 23.4659 35.4854 24.6461 35.0276C24.8463 34.9499 25.0202 34.8962 25.0325 34.9084C25.0752 34.9507 24.4809 35.3462 24.0617 35.5544C23.4977 35.8345 23.0492 35.9428 22.4531 35.9428C21.3722 35.9428 20.4749 35.3962 19.7261 34.2814C19.5788 34.0621 19.2476 33.4049 18.9902 32.8213C18.1997 31.0285 17.8092 30.4823 16.8914 29.8846C16.0925 29.3645 15.0623 29.2714 14.2872 29.6492C13.2692 30.1454 12.9852 31.439 13.7144 32.2588C14.0042 32.5846 14.5445 32.8655 14.9864 32.9201C15.8132 33.0224 16.5236 32.3971 16.5236 31.5673C16.5236 31.0285 16.3152 30.7208 15.7908 30.4856C15.0747 30.1643 14.3048 30.5399 14.3085 31.2088C14.3102 31.4941 14.435 31.6732 14.7227 31.8026C14.9072 31.8856 14.9114 31.8922 14.7609 31.8611C14.1038 31.7257 13.9499 30.938 14.4783 30.415C15.1127 29.7872 16.4244 30.0643 16.8749 30.9212C17.064 31.2811 17.0861 31.9979 16.9211 32.4307C16.5518 33.3995 15.4751 33.9089 14.3829 33.6317C13.6392 33.443 13.3365 33.2386 12.4399 32.3204C10.882 30.7247 10.2772 30.4156 8.03123 30.067L7.60083 30.0002L8.09057 29.5891Z" fill="#E0EAFF"/>
<path fill-rule="evenodd" clip-rule="evenodd" d="M0.782093 1.03107C5.98481 7.3095 9.56819 9.89987 9.96641 10.4471C10.2952 10.899 10.1714 11.3053 9.60818 11.6237C9.29495 11.8007 8.65097 11.9801 8.32855 11.9801C7.96385 11.9801 7.83865 11.8402 7.83865 11.8402C7.62719 11.6408 7.50811 11.6757 6.42224 9.75922C4.9147 7.4334 3.65309 5.50402 3.61867 5.47171C3.53909 5.39701 3.54046 5.39953 6.26852 10.2528C6.7093 11.2644 6.3562 11.6357 6.3562 11.7797C6.3562 12.0728 6.27578 12.2269 5.91217 12.6301C5.30599 13.3025 5.03501 14.058 4.83941 15.6215C4.62011 17.3742 4.00349 18.6123 2.29466 20.7312C1.29436 21.9716 1.13069 22.199 0.878288 22.6989C0.560363 23.3285 0.472943 23.6811 0.437513 24.4761C0.400058 25.3166 0.473003 25.8596 0.731273 26.6633C0.957383 27.3668 1.19341 27.8315 1.7968 28.7606C2.31751 29.5625 2.61733 30.1584 2.61733 30.3915C2.61733 30.5771 2.65294 30.5772 3.45982 30.3962C5.3908 29.9625 6.95875 29.2001 7.84058 28.2656C8.38634 27.6872 8.51447 27.3678 8.51863 26.5752C8.52136 26.0567 8.50301 25.9482 8.36207 25.65C8.13263 25.1645 7.71496 24.761 6.79436 24.1352C5.58814 23.3153 5.07293 22.6553 4.93063 21.7476C4.81388 21.0027 4.94932 20.4773 5.61661 19.0868C6.3073 17.6474 6.47845 17.034 6.59423 15.5832C6.66902 14.6459 6.77258 14.2763 7.04344 13.9795C7.32593 13.6701 7.58023 13.5653 8.27935 13.4704C9.41911 13.3155 10.1449 13.0223 10.7414 12.4758C11.2589 12.0016 11.4755 11.5448 11.5087 10.857L11.5339 10.3357L11.2447 10.0004C10.1974 8.78629 0.0807228 0.0766602 0.0162678 0.0766602C0.00249784 0.0766602 0.347138 0.506173 0.782093 1.03107ZM3.20522 25.4271C3.44201 25.0103 3.31621 24.4742 2.92012 24.2124C2.54588 23.9649 1.96451 24.0815 1.96451 24.4038C1.96451 24.5022 2.01923 24.5739 2.14255 24.6369C2.35021 24.7433 2.36528 24.8627 2.2019 25.1069C2.03644 25.3541 2.04979 25.5716 2.23958 25.7193C2.54546 25.9574 2.97845 25.8264 3.20522 25.4271Z" fill="#E0EAFF"/>
<path fill-rule="evenodd" clip-rule="evenodd" d="M12.2501 13.7436C11.715 13.907 11.1949 14.4707 11.0339 15.062C10.9357 15.4226 10.9914 16.0553 11.1385 16.2508C11.3762 16.5664 11.606 16.6495 12.2284 16.6451C13.4469 16.6367 14.5062 16.1171 14.6294 15.4675C14.7303 14.935 14.265 14.1971 13.6242 13.8731C13.2936 13.706 12.5903 13.6397 12.2501 13.7436ZM13.6745 14.851C13.8624 14.5855 13.7802 14.2987 13.4606 14.1046C12.852 13.7351 11.9317 14.0409 11.9317 14.6125C11.9317 14.897 12.4116 15.2075 12.8516 15.2075C13.1444 15.2075 13.545 15.034 13.6745 14.851Z" fill="#E0EAFF"/>
<path d="M134.225 34.4755V15.533H136.959V17.6812C137.712 16.4537 139.163 15.1982 141.59 15.1982C145.216 15.1982 147.839 18.0718 147.839 22.4237C147.839 26.7757 145.216 29.6492 141.59 29.6492C139.107 29.6492 137.684 28.3379 136.987 27.2221V34.4755H134.225ZM140.948 27.4453C143.654 27.4453 144.965 25.1855 144.965 22.4237C144.965 19.6619 143.654 17.4022 140.948 17.4022C138.242 17.4022 136.875 19.7177 136.875 22.4237C136.875 25.1297 138.242 27.4453 140.948 27.4453Z" fill="#E0EAFF"/>
<path d="M123.915 29.6492C121.432 29.6492 119.2 28.1426 119.2 25.5761C119.2 23.0654 120.957 21.9215 123.943 21.3358L125.84 20.9452C127.318 20.6383 128.016 20.3314 128.016 19.1876C128.016 18.0439 127.067 17.2348 125.393 17.2348C123.58 17.2348 122.408 18.3506 122.297 20.1919L119.451 19.9408C119.646 16.9837 122.018 15.1982 125.421 15.1982C128.936 15.1982 130.805 16.9 130.805 19.8014V29.3144H128.155V27.6964H128.127C127.486 28.7564 126.063 29.6492 123.915 29.6492ZM124.64 27.6685C126.593 27.6685 128.127 26.3852 128.127 24.0976V22.4237C125.226 22.898 123.859 23.2885 123.022 23.8186C122.38 24.2092 122.018 24.767 122.018 25.5203C122.018 26.8036 123.078 27.6685 124.64 27.6685Z" fill="#E0EAFF"/>
<path d="M101.449 29.3145L97.0691 15.5332H99.9984L103.011 25.9389H103.039L106.164 15.5332H108.926L112.078 25.911H112.106L115.119 15.5332H117.992L113.612 29.3145H110.711L107.586 18.6856H107.559L104.378 29.3145H101.449Z" fill="#E0EAFF"/>
<path d="M90.3104 29.6492C86.879 29.6492 84.3682 28.0591 84.0613 24.767L86.7953 24.4324C86.9348 26.6083 88.4692 27.6127 90.3662 27.6127C92.2354 27.6127 93.4907 26.7757 93.4907 25.4366C93.4907 24.0976 92.2075 23.8186 90.4778 23.428L88.4413 22.9538C86.2094 22.4237 84.6751 21.3637 84.6751 19.2434C84.6751 16.9 86.9906 15.1982 90.2546 15.1982C93.407 15.1982 95.555 16.7884 95.9177 19.355L93.1559 19.7456C92.9606 18.0997 91.7611 17.2348 90.143 17.2348C88.4971 17.2348 87.4369 18.0439 87.4369 19.1039C87.4369 20.1082 88.0507 20.4709 89.7803 20.8615L91.8169 21.3358C94.7182 22.0052 96.2525 22.9538 96.2525 25.1576C96.2525 27.9196 93.686 29.6492 90.3104 29.6492Z" fill="#E0EAFF"/>
<path d="M78.9197 29.3146V15.5332H81.6816V29.3146H78.9197ZM78.9197 13.3851V10.1211H81.6816V13.3851H78.9197Z" fill="#E0EAFF"/>
<path d="M63.4773 29.3144V15.533H66.2112V17.4859H66.2391C67.0203 16.2863 68.5546 15.1982 70.647 15.1982C73.7157 15.1982 75.529 17.0395 75.529 20.3872V29.3144H72.7671V21.5867C72.7671 19.1039 72.2092 17.5138 69.8937 17.5138C67.5781 17.5138 66.2391 19.3829 66.2391 21.6146V29.3144H63.4773Z" fill="#E0EAFF"/>
<path d="M52.7368 29.6493C48.1617 29.6493 45.3718 27.0548 45.3718 22.2844V10.1211H48.2733V22.117C48.2733 25.2136 49.7239 27.2222 52.7368 27.2222C56.0008 27.2222 57.2004 25.2136 57.2004 22.117V10.1211H60.1018V22.2844C60.1018 27.0548 57.312 29.6493 52.7368 29.6493Z" fill="#E0EAFF"/>
</g>
<defs>
<clipPath id="clip0_1392_32393">
<rect width="148" height="36" fill="white"/>
</clipPath>
</defs>
</svg>
