<svg width="24" height="24" viewBox="0 0 24 24" fill="none" xmlns="http://www.w3.org/2000/svg">
<path d="M9 2V5M15 2V5M9 19V22M15 19V22M19 9H22M19 14H22M2 9H5M2 14H5M9.8 19H14.2C15.8802 19 16.7202 19 17.362 18.673C17.9265 18.3854 18.3854 17.9265 18.673 17.362C19 16.7202 19 15.8802 19 14.2V9.8C19 8.11984 19 7.27976 18.673 6.63803C18.3854 6.07354 17.9265 5.6146 17.362 5.32698C16.7202 5 15.8802 5 14.2 5H9.8C8.11984 5 7.27976 5 6.63803 5.32698C6.07354 5.6146 5.6146 6.07354 5.32698 6.63803C5 7.27976 5 8.11984 5 9.8V14.2C5 15.8802 5 16.7202 5.32698 17.362C5.6146 17.9265 6.07354 18.3854 6.63803 18.673C7.27976 19 8.11984 19 9.8 19Z" stroke="#6172F3" stroke-width="2" stroke-linecap="round" stroke-linejoin="round"/>
<path d="M15.5 9V15H14V9H15.5Z" fill="#6172F3"/>
<path d="M9.43361 15H8L9.86208 9H11.6379L13.5 15H12.0664L10.7702 10.5117H10.7271L9.43361 15ZM9.24228 12.6387H12.2389V13.7402H9.24228V12.6387Z" fill="#6172F3"/>
</svg>
