<svg width="24" height="24" viewBox="0 0 24 24" fill="none" xmlns="http://www.w3.org/2000/svg">
<path d="M2 8L11.172 2.49409C11.4713 2.31445 11.6209 2.22463 11.7807 2.18951C11.922 2.15845 12.0683 2.15842 12.2097 2.18942C12.3694 2.22447 12.5191 2.31422 12.8184 2.49373L12.8184 2.49374L22 8L12.828 13.5059L12.828 13.5059C12.5287 13.6856 12.3791 13.7754 12.2193 13.8105C12.078 13.8416 11.9317 13.8416 11.7904 13.8106C11.6306 13.7755 11.4809 13.6858 11.1816 13.5063L2 8Z" stroke="#C7D7FE" stroke-width="2" stroke-linecap="round" stroke-linejoin="round"/>
<path d="M10.7458 7.75L11.1721 7.49409C11.4714 7.31445 11.621 7.22463 11.7807 7.18951C11.922 7.15845 12.0684 7.15842 12.2097 7.18942C12.3695 7.22447 12.5191 7.31422 12.8185 7.49374L13.2458 7.75L13.8711 8.125L13.2458 8.5L12.8185 8.75626C12.5191 8.93578 12.3695 9.02553 12.2097 9.06058C12.0684 9.09158 11.922 9.09155 11.7807 9.06049C11.621 9.02537 11.4714 8.93555 11.1721 8.75591L11.1721 8.75591L10.7458 8.5L10.1211 8.125L10.7458 7.75Z" stroke="#C7D7FE" stroke-width="2" stroke-linecap="round" stroke-linejoin="round"/>
<path d="M4.50195 17.5L7.00318 19L11.1823 21.5063C11.4817 21.6858 11.6313 21.7755 11.7911 21.8106C11.9324 21.8416 12.0788 21.8416 12.2201 21.8105C12.3798 21.7754 12.5294 21.6856 12.8287 21.5059L17.0032 19L19.502 17.5" stroke="#C7D7FE" stroke-width="2" stroke-linecap="round" stroke-linejoin="round"/>
<path d="M6.68586 11.125L5.62391 11.75L3.5 13L11.1931 17.523C11.4884 17.6966 11.636 17.7834 11.7933 17.8173C11.9324 17.8473 12.0763 17.8473 12.2155 17.8172C12.3727 17.7832 12.5203 17.6964 12.8155 17.5226L20.5 13L18.3739 11.75L17.3109 11.125" stroke="#C7D7FE" stroke-width="2" stroke-linecap="round" stroke-linejoin="round"/>
</svg>
